<?xml version="1.0" encoding="utf-8"?>
<!-- Generator: Adobe Illustrator 25.2.0, SVG Export Plug-In . SVG Version: 6.00 Build 0)  -->
<svg version="1.1" id="Calque_1" xmlns="http://www.w3.org/2000/svg" xmlns:xlink="http://www.w3.org/1999/xlink" x="0px" y="0px"
	 viewBox="0 0 337.3 255.1" style="enable-background:new 0 0 337.3 255.1;" xml:space="preserve">
<style type="text/css">
	.st0{fill:#020203;}
</style>
<g>
	<g>
		<path class="st0" d="M119.4,141.4h3.3l30.7,25.9v-25.9h11.5v47.4h-3.3l-30.7-25.9v25.9h-11.5V141.4z"/>
		<polygon class="st0" points="48.3,141.4 25.8,160.5 3.3,141.4 0,141.4 0,188.8 11.5,188.8 11.5,162.9 25.2,175.2 26.3,175.2 
			40.1,162.9 40.1,188.8 51.6,188.8 51.6,141.4 		"/>
		<path class="st0" d="M176.1,141.4h20.7c14.9,0,24.6,9.7,24.6,23.1c0,13.8-9.7,24.3-24.6,24.3h-20.7V141.4z M187,151.9v26.5h10.9
			c6.9,0,12-6.2,12-13.8c0-7.5-5.1-12.7-12-12.7L187,151.9z"/>
		<path class="st0" d="M229.1,141.4h12.5v47.4h-12.5V141.4z"/>
		<path class="st0" d="M337.3,188.8h-32.9v-47.4h11.9v36.9h21.1V188.8z"/>
		<path class="st0" d="M274.5,141.4h-2.9l-25.2,47.4H259l2.3-4.7H284h0l2.4,4.7h13.3L274.5,141.4z M273,160.2l6.2,14h-13.1
			L273,160.2z"/>
		<path class="st0" d="M60.3,165.1c0-14.3,11-24.7,25.2-24.7c14.1,0,25.1,10.4,25.1,24.7c0,14.3-11,24.9-25.1,24.9
			C71.3,189.9,60.3,179.4,60.3,165.1z M99.2,165.1c0-8.1-5.8-14.3-13.6-14.3c-7.9,0-13.7,6.2-13.7,14.3c0,8.2,5.8,14.4,13.7,14.4
			C93.4,179.4,99.2,173.3,99.2,165.1z"/>
	</g>
	<g>
		<path class="st0" d="M135.9,31.4c7.4-10,19.4-16.5,32.8-16.5c13.4,0,25.3,6.5,32.8,16.5c6.1-0.9,11.4-2,15.5-3.5
			c-9.6-16.7-27.6-28-48.2-28c-20.6,0-38.6,11.2-48.2,28C124.5,29.4,129.8,30.6,135.9,31.4z"/>
		<path class="st0" d="M216.9,28c-3.3,2.8-6.9,6.8-10.7,11.7c2.1,5,3.3,10.5,3.3,16.2c0,21-15.8,38.3-36.1,40.7
			c-2.3,5.7-3.9,10.9-4.7,15.2c30.8,0,55.7-25,55.7-55.9C224.4,45.7,221.6,36.2,216.9,28z"/>
		<path class="st0" d="M127.8,55.9c0-5.8,1.2-11.3,3.3-16.2c-3.8-4.8-7.5-8.9-10.7-11.7c-4.7,8.2-7.5,17.7-7.5,27.9
			c0,30.9,24.9,55.9,55.7,55.9c-0.8-4.2-2.4-9.4-4.7-15.2C143.6,94.2,127.8,76.9,127.8,55.9z"/>
	</g>
	<g>
		<path class="st0" d="M19.1,210.1H0V254h19.1c14,0,23-8.6,23-21.9C42.1,218.8,33.1,210.1,19.1,210.1z M31.7,232.1
			c0,8.2-4.9,12.9-13.4,12.9h-8v-25.8h8C26.8,219.2,31.7,223.9,31.7,232.1z"/>
		<polygon class="st0" points="49.5,254 84.4,254 84.4,245 59.8,245 59.8,236.4 80.4,236.4 80.4,227.4 59.8,227.4 59.8,219.2 
			84.4,219.2 84.4,210.1 49.5,210.1 		"/>
		<polygon class="st0" points="114.5,210.1 104.1,210.1 104.1,254 136.7,254 136.7,245 114.5,245 		"/>
		<path class="st0" d="M149.9,216.3c0-4.5-2.4-7.3-6.4-7.3c-3.3,0-5.9,2.5-5.9,5.8c0,2.6,1.8,4.8,4.3,5.4c-0.7,1.7-2.2,3-4.2,3.6
			l-1.5,0.4l2.1,5.8l1.3-0.3C145.8,228.4,149.9,223,149.9,216.3z"/>
		<polygon class="st0" points="246.1,219.2 261.7,219.2 261.7,254 272.3,254 272.3,219.2 287.8,219.2 287.8,210.1 246.1,210.1 		"/>
		<path class="st0" d="M313.5,209.1c-13.6,0-23.9,9.9-23.9,23c0,13.2,10.3,23.1,23.9,23.1c13.6,0,23.8-9.9,23.8-23.1
			C337.3,218.9,327.1,209.1,313.5,209.1z M326.9,232.1c0,7.9-5.8,13.8-13.4,13.8c-7.8,0-13.5-5.8-13.5-13.8
			c0-7.8,5.8-13.7,13.5-13.7C321.1,218.3,326.9,224.2,326.9,232.1z"/>
		<path class="st0" d="M229.9,233.1c0,8-4.2,12.4-11.9,12.4c-7.6,0-11.9-4.4-11.9-12.4v-23h-10.5V232c0,14.9,7.9,23.1,22.3,23.1
			c14.2,0,22.3-8.4,22.3-23.1v-21.9h-10.5V233.1z"/>
		<path class="st0" d="M169.9,210.4h-2.5l-23.9,43.9h11.7l2.2-4.4h21.9l2.3,4.4h12.2L170,210.6L169.9,210.4z M175,241h-13.2
			l6.9-13.8L175,241z"/>
	</g>
</g>
</svg>
