<?xml version="1.0" encoding="utf-8"?>
<!-- Generator: Adobe Illustrator 25.4.1, SVG Export Plug-In . SVG Version: 6.00 Build 0)  -->
<svg version="1.1" id="Calque_1" xmlns="http://www.w3.org/2000/svg" xmlns:xlink="http://www.w3.org/1999/xlink" x="0px" y="0px"
	 viewBox="0 0 96 96" style="enable-background:new 0 0 96 96;" xml:space="preserve">
<g>
	<polyline points="41,31.6 41,31.6 41,72.3 	"/>
	<polyline points="23.9,13.2 72.1,13.2 72.3,82.7 44.9,82.7 44.9,72.3 41,72.3 41,86.5 76,86.5 76,9.5 20,9.5 	"/>
	<polyline points="41,31.6 41,31.6 41,72.3 	"/>
	<polyline points="23.9,13.2 72.1,13.2 72.3,82.7 44.9,82.7 44.9,72.3 41,72.3 41,86.5 76,86.5 76,9.5 20,9.5 	"/>
	<path d="M44.9,35.5h4c0.7,0,1.3,0.1,1.8,0.3c0.5,0.2,0.9,0.6,1.2,1.1c0.3,0.5,0.5,1.2,0.6,2.1c0.1,0.9,0.2,2,0.2,3.3v19.1
		c0,1.4-0.1,2.5-0.2,3.5c-0.1,0.9-0.4,1.6-0.7,2.2c-0.3,0.5-0.7,0.9-1.2,1.1s-1.2,0.3-1.9,0.3h-3.7L44.9,35.5L44.9,35.5z M41,31.6
		v40.7h7.6c1.7,0,3-0.3,4-0.8c1-0.6,1.8-1.3,2.4-2.3c0.6-1,0.9-2.1,1.1-3.4c0.2-1.3,0.3-2.7,0.3-4.3V42.3c0-1.5-0.1-2.9-0.3-4.2
		s-0.6-2.4-1.1-3.4c-0.6-1-1.4-1.7-2.4-2.2c-1-0.5-2.4-0.8-4-0.8L41,31.6L41,31.6z"/>
	<polygon points="20,9.5 20,72.5 23.5,72.5 23.9,13.2 72.1,13.2 72.3,82.7 44.9,82.7 44.9,72.3 41,72.3 41,86.5 76,86.5 76,9.5 	"/>
	<path d="M23.9,15"/>
	<path d="M20,11.2"/>
	<path d="M23.9,15"/>
	<path d="M20,11.2"/>
</g>
</svg>
