<?xml version="1.0" encoding="utf-8"?>
<!-- Generator: Adobe Illustrator 26.0.1, SVG Export Plug-In . SVG Version: 6.00 Build 0)  -->
<svg version="1.1" id="Calque_1" xmlns="http://www.w3.org/2000/svg" xmlns:xlink="http://www.w3.org/1999/xlink" x="0px" y="0px"
	 viewBox="0 0 841.89 1190.55" style="enable-background:new 0 0 841.89 1190.55;" xml:space="preserve">
<style type="text/css">
	.st0{fill:#FFFFFF;}
</style>
<rect x="0" y="0" class="st0" width="841.89" height="1190.55"/>
<g>
	<g>
		<g>
			<path d="M616.22,752.11c3.85,2.54,6.67,6.18,8.45,10.93c1.78,4.74,2.85,10.48,3.2,17.21c0.34,6.74,0.52,14.3,0.52,22.68v87.21
				c0,8.8-0.21,16.6-0.62,23.4c-0.41,6.8-1.58,12.54-3.51,17.21c-1.92,4.68-4.78,8.22-8.56,10.62c-3.78,2.41-9.11,3.61-15.98,3.61
				c-7.14,0-12.68-1.27-16.6-3.81c-3.91-2.54-6.8-6.19-8.66-10.93c-1.86-4.74-2.96-10.48-3.3-17.21
				c-0.34-6.73-0.51-14.23-0.51-22.47v-87.41c0-8.8,0.21-16.6,0.62-23.4c0.41-6.8,1.58-12.54,3.5-17.22
				c1.92-4.67,4.85-8.21,8.76-10.61c3.92-2.41,9.31-3.61,16.18-3.61C606.87,748.29,612.38,749.56,616.22,752.11 M541.18,890.34
				c0,11.13,0.58,21.79,1.75,31.96c1.17,10.17,3.78,19.1,7.83,26.8c4.05,7.69,10,13.81,17.84,18.35s18.35,6.8,31.55,6.8
				c13.05,0,23.4-2.24,31.03-6.7c7.63-4.46,13.4-10.51,17.32-18.14c3.91-7.63,6.46-16.52,7.63-26.7
				c1.16-10.17,1.75-21.03,1.75-32.57v-87c0-11.14-0.55-21.78-1.65-31.96c-1.1-10.17-3.64-19.1-7.63-26.8
				c-3.99-7.69-9.83-13.82-17.52-18.35c-7.7-4.54-18.14-6.8-31.34-6.8c-12.92,0-23.26,2.23-31.03,6.7
				c-7.77,4.47-13.68,10.51-17.73,18.14s-6.7,16.57-7.93,26.8c-1.24,10.24-1.86,21.13-1.86,32.68V890.34z M483.24,896.11
				c0,6.74-0.24,13.06-0.72,18.97c-0.48,5.91-1.68,11.1-3.61,15.57c-1.93,4.46-4.81,7.97-8.66,10.51
				c-3.85,2.55-9.21,3.81-16.08,3.81c-5.09,0-9.35-0.69-12.78-2.06c-3.44-1.37-6.26-3.4-8.46-6.08c-2.2-2.68-3.85-5.91-4.95-9.69
				c-1.1-3.78-1.86-8.14-2.27-13.09c-0.41-6.18-0.62-12.37-0.62-18.55c0-3.16,0.03-6.39,0.11-9.69c0.07-3.3,0.1-6.73,0.1-10.31
				v-71.75c0-8.8,0.21-16.63,0.62-23.51c0.41-6.87,1.55-12.68,3.4-17.42s4.74-8.35,8.66-10.82c3.91-2.47,9.31-3.71,16.18-3.71
				c7.14,0,12.68,1.37,16.6,4.12c3.91,2.75,6.8,6.39,8.66,10.93c1.86,4.53,2.96,9.72,3.3,15.56c0.34,5.85,0.51,11.86,0.51,18.04v6.8
				h29.48v-6.6c0-9.07-0.55-18.25-1.65-27.52c-1.1-9.28-3.68-17.66-7.74-25.15c-4.06-7.49-9.95-13.58-17.66-18.25
				c-7.71-4.67-18.17-7.01-31.39-7.01c-11.71,0-21.31,1.65-28.81,4.95s-13.42,7.97-17.76,14.02c-4.34,6.05-7.34,13.37-8.99,21.96
				c-1.65,8.59-2.55,18.18-2.68,28.76c-0.14,3.85-0.21,7.97-0.21,12.37v12.16v76.28c0,11.27,0.58,22.03,1.76,32.26
				c1.17,10.24,3.75,19.21,7.74,26.9c3.99,7.7,9.88,13.85,17.66,18.45c7.78,4.6,18.28,6.91,31.5,6.91c13.08,0,23.48-2.31,31.19-6.91
				c7.71-4.6,13.56-10.61,17.56-18.04c3.99-7.42,6.57-15.77,7.74-25.05c1.17-9.28,1.76-18.66,1.76-28.14v-6.18h-29.48V896.11z
				 M316.12,653.66l-22.47,52.16h22.88l28.44-52.16H316.12z M322.95,752.41c3.92,2.75,6.8,6.49,8.66,11.24
				c1.86,4.74,2.95,10.21,3.3,16.39c0.34,6.19,0.52,12.71,0.52,19.59v24.12l-58.14,12.37v-35.05c0-8.8,0.21-16.5,0.62-23.09
				c0.41-6.6,1.58-12.1,3.5-16.5s4.85-7.69,8.76-9.9c3.92-2.2,9.31-3.3,16.18-3.3C313.5,748.29,319.03,749.67,322.95,752.41
				 M335.42,887.04v6.39c0,7.42-0.24,14.26-0.72,20.51c-0.48,6.25-1.68,11.68-3.61,16.28c-1.92,4.61-4.81,8.22-8.66,10.82
				c-3.85,2.61-9.21,3.92-16.08,3.92c-7.15,0-12.68-1.24-16.6-3.71c-3.92-2.47-6.8-6.04-8.66-10.72c-1.85-4.67-2.96-10.34-3.3-17.01
				c-0.34-6.67-0.52-14.13-0.52-22.37v-28.04l87.63-17.94v-45.36c0-9.76-0.55-19.45-1.66-29.07c-1.1-9.62-3.65-18.25-7.64-25.87
				c-4-7.63-9.88-13.82-17.66-18.56c-7.78-4.74-18.28-7.11-31.49-7.11c-12.94,0-23.31,2.1-31.09,6.29
				c-7.78,4.19-13.7,10-17.76,17.42c-4.06,7.42-6.71,16.12-7.95,26.08c-1.24,9.97-1.86,20.72-1.86,32.27v89.89
				c0,11.14,0.58,21.75,1.75,31.86c1.17,10.1,3.79,18.93,7.85,26.49c4.06,7.56,9.98,13.57,17.76,18.04c7.78,4.46,18.35,6.7,31.7,6.7
				c13.08,0,23.44-2.31,31.08-6.91c7.64-4.6,13.46-10.72,17.46-18.35c3.99-7.63,6.57-16.29,7.74-25.98
				c1.17-9.69,1.76-19.55,1.76-29.59v-6.39H335.42z M127.6,687.26h30.72c5.36,0.14,9.86,1,13.5,2.58c3.64,1.57,6.6,4.33,8.87,8.24
				c2.27,3.91,3.92,9.24,4.95,15.97c1.03,6.73,1.55,15.31,1.55,25.75v147.09c0,10.71-0.55,19.57-1.65,26.57
				c-1.1,7-2.85,12.57-5.25,16.69c-2.41,4.12-5.6,6.97-9.59,8.55c-3.99,1.57-8.86,2.36-14.63,2.36H127.6V687.26z M97.71,657.58
				v313.17h58.65c12.76,0,23.08-2.13,30.98-6.39c7.89-4.26,13.99-10.14,18.31-17.63c4.33-7.49,7.24-16.32,8.75-26.49
				c1.51-10.17,2.26-21.1,2.26-32.78V739.63c0-11.68-0.76-22.51-2.26-32.47c-1.51-9.96-4.43-18.62-8.75-25.98
				c-4.32-7.35-10.39-13.12-18.21-17.32c-7.82-4.19-18.11-6.29-30.87-6.29H97.71z"/>
			<path d="M651.29,378.23h-29.48v247.82h29.48V378.23z M622.84,330.29c2.75,2.82,7.22,4.23,13.4,4.23c6.6,0,11.3-1.41,14.12-4.23
				c2.81-2.81,4.23-6.83,4.23-12.06c0-5.36-1.41-9.48-4.23-12.37c-2.82-2.89-7.52-4.33-14.12-4.33c-6.19,0-10.65,1.45-13.4,4.33
				c-2.75,2.89-4.12,7.01-4.12,12.37C618.72,323.46,620.09,327.48,622.84,330.29 M589.22,626.04V461.11
				c0-11.14-0.48-21.92-1.45-32.37c-0.97-10.44-3.17-19.65-6.61-27.63c-3.44-7.97-8.54-14.36-15.28-19.17
				c-6.75-4.81-15.97-7.22-27.67-7.22c-19.28,0-31.4,7.77-36.35,23.3l0.15-19.79h-29.48v247.82h29.48v-167.2
				c0-8.93,0.31-16.81,0.92-23.61c0.62-6.8,1.92-12.54,3.9-17.22c1.99-4.67,4.9-8.21,8.73-10.62c3.84-2.4,8.97-3.61,15.41-3.61
				c7.12,0,12.6,1.31,16.43,3.92c3.83,2.61,6.68,6.29,8.53,11.03s2.94,10.45,3.29,17.11c0.34,6.67,0.51,14.12,0.51,22.37v167.82
				H589.22z M407.48,330.29c2.81,2.82,7.32,4.23,13.5,4.23c6.59,0,11.3-1.41,14.12-4.23c2.81-2.81,4.23-6.83,4.23-12.06
				c0-5.36-1.41-9.48-4.23-12.37c-2.82-2.89-7.53-4.33-14.12-4.33c-6.19,0-10.69,1.45-13.5,4.33c-2.82,2.89-4.23,7.01-4.23,12.37
				C403.25,323.46,404.66,327.48,407.48,330.29 M296.25,406.26h21.85v219.78h29.48V406.26h58.76v219.78h29.69V378.02h-88.45v-1.65
				c0-10.03,0.17-18.45,0.52-25.25c0.34-6.8,1.21-12.3,2.59-16.5c1.38-4.19,3.48-7.22,6.32-9.07c2.83-1.85,6.66-2.78,11.5-2.78
				c5.52,0,10.38,0.72,14.6,2.16c4.21,1.45,7.49,2.86,9.84,4.23l2.27-25.77c-3.16-2.34-7.36-4.5-12.58-6.49
				c-5.23-1.99-11.13-2.99-17.73-2.99c-10.31,0-18.55,1.86-24.74,5.57c-6.18,3.71-10.9,9.11-14.12,16.18
				c-3.23,7.08-5.36,15.71-6.39,25.87c-1.03,10.17-1.55,21.79-1.55,34.84v1.65h-21.85V406.26z M282.22,626.04V461.11
				c0-11.14-0.48-21.92-1.45-32.37c-0.97-10.44-3.17-19.65-6.61-27.63c-3.44-7.97-8.54-14.36-15.28-19.17
				c-6.75-4.81-15.97-7.22-27.67-7.22c-19.28,0-31.4,7.77-36.35,23.3l0.15-19.79h-29.48v247.82h29.48v-167.2
				c0-8.93,0.31-16.81,0.92-23.61c0.62-6.8,1.92-12.54,3.9-17.22c1.99-4.67,4.9-8.21,8.73-10.62c3.83-2.4,8.97-3.61,15.41-3.61
				c7.12,0,12.6,1.31,16.43,3.92c3.83,2.61,6.68,6.29,8.53,11.03c1.85,4.74,2.94,10.45,3.28,17.11c0.34,6.67,0.52,14.12,0.52,22.37
				v167.82H282.22z"/>
		</g>
		<polygon points="97.69,110.17 97.69,626.04 125.98,626.04 127.37,138.75 714.52,138.75 715.59,1050.7 127.37,1050.7 
			127.37,970.75 97.69,970.75 97.69,1080.38 744.2,1080.38 744.2,110.17 		"/>
	</g>
</g>
<g>
	<path d="M350.79,221.73c-1.65,2.94-4.14,5.29-7.48,7.06c-3.33,1.76-7.41,2.65-12.22,2.65h-8.15v19.99h-16.46V192.2h24.61
		c4.76,0,8.81,0.84,12.14,2.52c3.33,1.68,5.84,4,7.52,6.97c1.68,2.97,2.52,6.38,2.52,10.25
		C353.27,215.52,352.45,218.79,350.79,221.73z M336.47,211.94c0-4.31-2.32-6.47-6.97-6.47h-6.55v12.85h6.55
		C334.15,218.32,336.47,216.2,336.47,211.94z"/>
	<path d="M397.37,241.76h-21l-3.19,9.66h-17.3l21.59-59.22h18.98l21.5,59.22h-17.39L397.37,241.76z M393.25,229.16l-6.38-19.15
		l-6.3,19.15H393.25z"/>
	<path d="M453.31,251.42l-11.76-21.84h-1.76v21.84h-16.46V192.2h25.96c4.76,0,8.79,0.83,12.1,2.48c3.3,1.65,5.8,3.92,7.48,6.8
		c1.68,2.88,2.52,6.12,2.52,9.7c0,4.03-1.11,7.57-3.32,10.63c-2.21,3.05-5.45,5.22-9.7,6.51l13.36,23.1H453.31z M439.79,218.32h8.15
		c2.24,0,3.92-0.53,5.04-1.6c1.12-1.06,1.68-2.6,1.68-4.62c0-1.9-0.58-3.4-1.72-4.49c-1.15-1.09-2.81-1.64-5-1.64h-8.15V218.32z"/>
	<path d="M495.31,192.2v59.22h-16.46V192.2H495.31z"/>
	<path d="M510.1,247.09c-4.42-3.28-6.8-7.97-7.14-14.07h17.56c0.17,2.07,0.78,3.58,1.85,4.54c1.06,0.95,2.44,1.43,4.12,1.43
		c1.51,0,2.76-0.38,3.74-1.13c0.98-0.76,1.47-1.81,1.47-3.15c0-1.74-0.81-3.08-2.44-4.03c-1.62-0.95-4.26-2.02-7.9-3.19
		c-3.86-1.29-6.99-2.53-9.37-3.74c-2.38-1.2-4.45-2.97-6.22-5.29c-1.76-2.32-2.65-5.36-2.65-9.11c0-3.81,0.95-7.07,2.86-9.79
		c1.9-2.72,4.54-4.77,7.9-6.17c3.36-1.4,7.17-2.1,11.42-2.1c6.89,0,12.39,1.61,16.51,4.83c4.12,3.22,6.31,7.74,6.59,13.57h-17.89
		c-0.06-1.79-0.6-3.14-1.64-4.03c-1.04-0.9-2.37-1.34-3.99-1.34c-1.23,0-2.24,0.36-3.02,1.09c-0.79,0.73-1.18,1.76-1.18,3.11
		c0,1.12,0.43,2.09,1.3,2.9c0.87,0.81,1.95,1.51,3.23,2.1c1.29,0.59,3.19,1.33,5.71,2.23c3.75,1.29,6.85,2.56,9.28,3.82
		c2.44,1.26,4.54,3.02,6.3,5.29s2.65,5.14,2.65,8.61c0,3.53-0.88,6.69-2.65,9.49c-1.76,2.8-4.31,5.01-7.64,6.64
		c-3.33,1.62-7.27,2.44-11.8,2.44C520.18,252.01,514.52,250.37,510.1,247.09z"/>
</g>
</svg>
