<?xml version="1.0" encoding="utf-8"?>
<!-- Generator: Adobe Illustrator 25.2.3, SVG Export Plug-In . SVG Version: 6.00 Build 0)  -->
<svg version="1.1" id="Calque_1" xmlns="http://www.w3.org/2000/svg" xmlns:xlink="http://www.w3.org/1999/xlink" x="0px" y="0px"
	 viewBox="0 0 663.7 120.4" style="enable-background:new 0 0 663.7 120.4;" xml:space="preserve">
<style type="text/css">
	.st0{enable-background:new    ;}
	.st1{fill:#FFFFFF;}
</style>
<g class="st0">
	<path class="st1" d="M6.6,62.1h2c2.6,12.4,11,28.9,25.9,28.9c9.5,0,15.8-5.8,15.8-15.5c0-24-43.9-6.7-43.9-39.8
		c0-14.5,9.7-23.6,24.2-23.6c11.1,0,14.6,5.9,19.6,5.9c3.3,0,3.5-2.9,3.5-4.3h2v24.8h-2c-2.8-11.7-8.9-24.4-22.8-24.4
		c-8.4,0-14.6,5.6-14.6,14.1c0,21.2,44.6,4.5,44.6,37.2c0,17.2-9.7,27.7-25.2,27.7c-9.6,0-18.6-5.7-23-5.7c-3,0-4.1,2-4.1,4.1h-2
		V62.1z"/>
	<path class="st1" d="M105.7,82.5c0,3.4,0.6,5.5,2.5,5.5c2.6,0,3.9-3.3,3.9-6.2h2c0,6.5-4.6,10.8-11.8,10.8c-5,0-9-2.3-11-6.9
		c-2.9,5.3-10.5,6.9-14.7,6.9c-8.5,0-17.1-3.9-17.1-13.4c0-11.4,10.9-14.1,20.9-14.9l10.8-0.9v-9.2c0-6.6-1.1-10.7-9.4-10.7
		c-3.7,0-10.1,0.9-10,3.3c0.1,1.9,5.6,1.5,5.6,6.8c0,3.8-2.5,6.6-6.7,6.6c-5,0-7.1-3.3-7.1-7.1c0-6.2,8-11.6,19-11.6
		c11.3,0,23.1,3.1,23.1,15.6V82.5z M91.2,65.4l-8.7,0.9c-7.1,0.8-7.8,4.6-7.8,10.4c0,5.7,0.3,12.5,7.8,12.5c5.2,0,8.5-5.3,8.7-11.1
		V65.4z"/>
	<path class="st1" d="M107.4,89.3h7.6V15.8h-7.6v-2h6.9c7.8,0,13.9,0,15.8-3.3v78.8h7.6v2h-30.4V89.3z"/>
	<path class="st1" d="M159.4,41.6c14.5,0,26.2,10.5,26.2,25.5s-11.7,25.5-26.2,25.5s-26.2-10.5-26.2-25.5S144.9,41.6,159.4,41.6z
		 M150.4,79c0,8.2,3.4,11.7,9,11.7c5.6,0,9-3.4,9-11.7V55.2c0-8.2-3.4-11.7-9-11.7c-5.6,0-9,3.4-9,11.7V79z"/>
	<path class="st1" d="M179.6,89.3h7.6V44.9h-7.6v-2h7.8c4.5,0,12.7,0,15-2.9v11.8h0.2c3-6.4,10.2-10.2,17.6-10.2
		c10.5,0,15.5,5.2,15.5,17.1v30.7h7.6v2h-29v-2h6.3V54.6c0-7.7-3.3-9-6.5-9c-6.2,0-11.7,8-11.7,13.6v30.1h6.5v2h-29.3V89.3z"/>
</g>
<g class="st0">
	<path class="st1" d="M246.6,89.3h1.4c4.2-0.3,6.2-3,7.5-6.6l25.5-70.6h1.6l29.5,77.2h5.4v2h-32.8v-2h8.8l-8-22.9h-21.3L258.9,82
		c-0.3,0.9-0.8,2.1-0.8,3.3c0,3.6,3.1,4.1,5.3,4.1h3.1v2h-19.9V89.3z M284.7,64.5l-9.6-27.8h-0.2l-9.8,27.8H284.7z"/>
	<path class="st1" d="M308.4,89.3h7.6V44.9h-7.6v-2h7.6c4.5,0,12.6,0,15-2.9v11.2h0.2c2.1-5.5,7.5-10.3,14.5-10.3
		c5.2,0,8.7,3.2,8.7,8.5c0,4.2-3.1,8-8.4,8c-4.3,0-7.5-2.9-7.5-7.2c0-2.8,0.8-4.5,2.6-6.5h-0.4c-6.9,3.1-9.6,9-9.6,17.5v28h10.1v2
		h-32.9V89.3z"/>
	<path class="st1" d="M346.4,44.9v-2c11.1,0,19-12,19-23.7h2v23.7h10.1v2h-10.1v37.4c0,3.6,1.4,5.7,4.3,5.7c2.8,0,4.5-2.6,5.8-4.6
		l1.4,0.8c-3.4,5.7-7.9,8.5-14.6,8.5c-3.1,0-12.1-2.1-12.1-12.5V44.9H346.4z"/>
	<path class="st1" d="M423.4,64.3c5.2-8.5,9.6-13.8,17.5-13.8c4.5,0,8.4,3.8,8.4,8.6c0,4.5-2.5,8.6-7.4,8.6c-4.4,0-7.2-3.1-7.2-6.7
		c0-1.3,0.3-2.2,0.3-3.1s-0.9-1.4-2-1.4c-2.6,0-6.6,7.5-8.2,9.7c7.9,9.9,13.9,16.3,18.4,16.3c5.5,0,7.8-4.5,9.5-9l1.4,0.7
		c-2.6,9-8.1,18.9-18.8,18.9c-6.5,0-10.9-3.7-19.5-13.9c-7.5,9.2-13.6,13.9-22.4,13.9c-10.1,0-17.9-10-17.9-19.7
		c0-8.9,6.9-14.5,19.9-22.4c-3.9-5.3-7.6-11.4-7.6-18.2c0-10,8.6-16.4,18.6-16.4c8.6,0,13.5,4.5,13.5,12.5c0,7.9-4.8,11.9-10.9,16.2
		L423.4,64.3z M396.5,52.7c-5.4,4.1-8.6,5.1-8.6,12.4c0,7.1,9.1,18.7,16.9,18.7c4.2,0,7.6-3.1,9.6-6.4L396.5,52.7z M407.5,43.4
		c4.7-3,9.7-7.6,9.7-13.6c0-6.9-3.4-10.8-9.8-10.8c-4.7,0-7.8,3.3-7.8,7.8C399.6,32.1,405,39,407.5,43.4z"/>
	<path class="st1" d="M451.5,89.3h8.9V15.8h-8.9v-2h38c23,0,39,15,39,39.3c0,13.9-8.5,38.2-38.4,38.2h-38.6V89.3z M477.6,89.3h9.1
		c21.6,0,23.3-17.8,23.3-37.2c0-21-1.9-36.3-21.9-36.3h-10.6V89.3z"/>
	<path class="st1" d="M542.1,64.7v9.2c0,7.5,1.1,16.1,11.3,16.1c8.6,0,15-6.4,17.4-16.6h2c-2.4,10.9-9.1,19.2-22.7,19.2
		c-14.1,0-24.5-10.7-24.5-25c0-14.8,11.2-26.1,24.2-26.1c11.5-0.2,22.5,11.2,22.7,23.1H542.1z M555.9,62.7v-9.5c0-6-1.6-9.7-6.9-9.7
		c-3.7,0-6.9,2.3-6.9,9.7v9.5H555.9z M552.1,18.1c2.6-5.3,3-6,6.3-6c3.1,0,4.2,1.1,4.2,2.8c0,0.8-0.9,2.5-2.6,4.4l-14.4,15.3h-1.4
		L552.1,18.1z"/>
	<path class="st1" d="M595.6,41.6c7.5,0,18.9,3.7,18.9,12.9c0,4-2.5,7.6-8,7.6c-4.5,0-7.1-3.3-7.1-7.5c0-5,4.2-5.6,4.2-7.5
		c0-1.8-2.9-3.5-7.9-3.5c-8,0-10.7,4.5-10.7,16.5v12.5c0,14.6,3.8,18,10.9,18c9.7,0,16.9-7,17.8-15.1h2
		c-1.2,10.2-9.3,17.1-20.8,17.1c-14.5,0-26.4-10.6-26.4-25.3C568.5,54.3,581.1,41.6,595.6,41.6z"/>
	<path class="st1" d="M637.6,41.6c14.5,0,26.2,10.5,26.2,25.5s-11.7,25.5-26.2,25.5c-14.5,0-26.2-10.5-26.2-25.5
		S623,41.6,637.6,41.6z M628.5,79c0,8.2,3.4,11.7,9,11.7s9-3.4,9-11.7V55.2c0-8.2-3.4-11.7-9-11.7s-9,3.4-9,11.7V79z"/>
</g>
</svg>
