<svg id="Calque_1" data-name="Calque 1" xmlns="http://www.w3.org/2000/svg" xmlns:xlink="http://www.w3.org/1999/xlink" viewBox="0 0 640.43 699.75"><defs><style>.cls-1{fill:none;}.cls-2{clip-path:url(#clip-path);}.cls-3{font-size:271.06px;}.cls-14,.cls-15,.cls-3{fill:#181716;}.cls-10,.cls-11,.cls-15,.cls-22,.cls-24,.cls-3,.cls-7{font-family:BauerBodoniStd-Bold, "Bauer Bodoni Std 1";font-weight:700;}.cls-4{letter-spacing:-0.08em;}.cls-5{letter-spacing:-0.09em;}.cls-6{letter-spacing:-0.08em;}.cls-11,.cls-7{font-size:244.89px;}.cls-10,.cls-7{fill:#ec6417;}.cls-11,.cls-8{letter-spacing:-0.13em;}.cls-9{letter-spacing:-0.04em;}.cls-10{font-size:284.21px;}.cls-11{fill:#ea5901;}.cls-12{letter-spacing:-0.13em;}.cls-13{letter-spacing:0em;}.cls-15{font-size:54.4px;}.cls-16{letter-spacing:-0.08em;}.cls-17{letter-spacing:-0.08em;}.cls-18{letter-spacing:-0.08em;}.cls-19{letter-spacing:-0.08em;}.cls-20{letter-spacing:-0.11em;}.cls-21{letter-spacing:-0.08em;}.cls-22{font-size:100.28px;}.cls-22,.cls-24{fill:#fff;}.cls-23{letter-spacing:-0.11em;}.cls-24{font-size:70.59px;}.cls-25{letter-spacing:-0.11em;}.cls-26{letter-spacing:-0.13em;}</style><clipPath id="clip-path" transform="translate(0 -17.16)"><rect class="cls-1" width="746.86" height="710.57"/></clipPath></defs><g class="cls-2"><text class="cls-3" transform="translate(0 224.98)">S</text><text class="cls-3" transform="translate(143.93 224.98)"><tspan class="cls-4">a</tspan><tspan class="cls-5" x="129.02" y="0">l</tspan><tspan class="cls-6" x="195.43" y="0">o</tspan><tspan x="324.73" y="0">n</tspan></text></g><text class="cls-7" transform="translate(4.63 359.21)"><tspan class="cls-8">A</tspan><tspan class="cls-9" x="131.75" y="0">r</tspan><tspan x="230.92" y="0">t</tspan></text><text class="cls-10" transform="translate(275.22 417.7) scale(1 1.04)">&amp;</text><text class="cls-11" transform="translate(164.13 526.52)">D<tspan class="cls-12" x="158.93" y="0">ec</tspan><tspan class="cls-13" x="340.15" y="0">o</tspan></text><rect class="cls-14" x="11.43" y="599.5" width="610.17" height="93.9"/><text class="cls-15" transform="translate(8.44 578.82)"><tspan class="cls-16">Le</tspan><tspan class="cls-17" x="54.89" y="0"> </tspan><tspan class="cls-18" x="65.66" y="0">re</tspan><tspan class="cls-19" x="108.41" y="0">n</tspan><tspan class="cls-18" x="137.3" y="0">d</tspan><tspan class="cls-17" x="166.24" y="0">e</tspan><tspan class="cls-16" x="189.08" y="0">z-</tspan><tspan class="cls-20" x="231.84" y="0">v</tspan><tspan class="cls-16" x="253.06" y="0">o</tspan><tspan class="cls-17" x="279" y="0">u</tspan><tspan class="cls-21" x="307.89" y="0">s </tspan><tspan class="cls-17" x="338.57" y="0">d</tspan><tspan class="cls-21" x="367.45" y="0">u</tspan><tspan class="cls-17" x="396.39" y="0"> </tspan><tspan class="cls-18" x="407.16" y="0">mag</tspan><tspan class="cls-17" x="500.02" y="0">a</tspan><tspan class="cls-18" x="525.91" y="0">zi</tspan><tspan class="cls-17" x="562.68" y="0">n</tspan><tspan x="591.57" y="0">e</tspan></text><g class="cls-2"><text class="cls-22" transform="translate(27.49 673.18)"><tspan class="cls-23">Ar</tspan><tspan x="89.55" y="0">t</tspan></text></g><text class="cls-24" transform="translate(139.29 673.18)">&amp;</text><g class="cls-2"><text class="cls-22" transform="translate(186.16 673.18)"><tspan class="cls-25">D</tspan><tspan class="cls-23" x="66.99" y="0">é</tspan><tspan class="cls-25" x="106.19" y="0">co</tspan><tspan class="cls-26" x="190.03" y="0">r</tspan><tspan class="cls-25" x="221.21" y="0">a</tspan><tspan class="cls-23" x="265.94" y="0">tio</tspan><tspan x="355.89" y="0">n</tspan></text></g></svg>