<?xml version="1.0" encoding="utf-8"?>
<!-- Generator: Adobe Illustrator 23.0.3, SVG Export Plug-In . SVG Version: 6.00 Build 0)  -->
<svg version="1.1" id="Calque_1" xmlns="http://www.w3.org/2000/svg" xmlns:xlink="http://www.w3.org/1999/xlink" x="0px" y="0px"
	 viewBox="0 0 1089 242.35" style="enable-background:new 0 0 1089 242.35;" xml:space="preserve">
<style type="text/css">
	.st0{fill:#FFFFFF;}
</style>
<g>
</g>
<g>
</g>
<g>
</g>
<g>
</g>
<g>
</g>
<g>
	<path class="st0" d="M217.19,127.85c0-5.27,1.03-10.23,3.08-14.9c2.05-4.66,4.82-8.75,8.32-12.26c3.5-3.51,7.57-6.28,12.21-8.31
		c4.65-2.03,9.59-3.05,14.82-3.05c3.48,0,6.84,0.46,10.11,1.38c3.26,0.92,6.32,2.23,9.17,3.93c2.85,1.7,5.45,3.72,7.79,6.06
		c2.34,2.34,4.36,4.95,6.06,7.82c1.7,2.87,3.01,5.93,3.93,9.19c0.92,3.26,1.38,6.65,1.38,10.16c0,3.51-0.46,6.9-1.38,10.16
		c-0.92,3.26-2.23,6.32-3.93,9.16c-1.7,2.85-3.72,5.45-6.06,7.79c-2.34,2.34-4.94,4.35-7.79,6.03c-2.85,1.68-5.91,2.98-9.17,3.89
		c-3.26,0.91-6.63,1.38-10.11,1.38c-3.48,0-6.84-0.46-10.11-1.38c-3.26-0.92-6.32-2.21-9.17-3.89c-2.85-1.68-5.45-3.69-7.79-6.03
		c-2.34-2.34-4.35-4.94-6.03-7.79c-1.68-2.85-2.99-5.9-3.93-9.16C217.66,134.75,217.19,131.36,217.19,127.85z M228.84,127.85
		c0,3.71,0.7,7.22,2.11,10.54c1.41,3.32,3.32,6.23,5.74,8.72c2.42,2.5,5.25,4.49,8.49,5.97c3.24,1.48,6.71,2.22,10.42,2.22
		c3.67,0,7.11-0.74,10.33-2.22c3.22-1.49,6.03-3.48,8.43-5.97c2.4-2.5,4.29-5.4,5.68-8.72c1.39-3.32,2.08-6.83,2.08-10.54
		c0-3.63-0.69-7.12-2.08-10.48c-1.39-3.36-3.28-6.31-5.68-8.87c-2.4-2.56-5.21-4.6-8.43-6.12c-3.22-1.52-6.66-2.28-10.33-2.28
		c-3.71,0-7.18,0.76-10.42,2.28c-3.24,1.52-6.07,3.56-8.49,6.12c-2.42,2.56-4.33,5.51-5.74,8.87
		C229.55,120.73,228.84,124.22,228.84,127.85z"/>
	<path class="st0" d="M255.62,166.75c-3.5,0-6.94-0.47-10.24-1.39c-3.3-0.93-6.42-2.26-9.29-3.95c-2.87-1.69-5.52-3.74-7.89-6.11
		c-2.36-2.36-4.42-5.01-6.11-7.89c-1.69-2.87-3.03-5.99-3.98-9.28c-0.95-3.29-1.43-6.75-1.43-10.29c0-5.31,1.05-10.39,3.12-15.1
		c2.07-4.7,4.9-8.88,8.42-12.42c3.53-3.54,7.69-6.37,12.37-8.42c4.7-2.05,9.75-3.09,15.02-3.09c3.5,0,6.94,0.47,10.24,1.39
		c3.29,0.93,6.42,2.26,9.29,3.98c2.87,1.71,5.53,3.77,7.89,6.13c2.36,2.36,4.43,5.03,6.14,7.92c1.71,2.89,3.05,6.02,3.98,9.31
		c0.92,3.29,1.39,6.76,1.39,10.29c0,3.54-0.47,7-1.39,10.29c-0.93,3.3-2.27,6.42-3.98,9.28c-1.71,2.88-3.78,5.53-6.14,7.88
		c-2.37,2.36-5.02,4.42-7.89,6.11c-2.87,1.69-5.99,3.02-9.29,3.95C262.56,166.28,259.12,166.75,255.62,166.75z M255.62,89.83
		c-5.13,0-10.05,1.01-14.62,3c-4.57,2-8.62,4.76-12.06,8.21c-3.43,3.45-6.2,7.53-8.21,12.11c-2.01,4.58-3.03,9.52-3.03,14.7
		c0,3.45,0.47,6.82,1.39,10.02c0.92,3.21,2.23,6.25,3.88,9.05c1.65,2.8,3.65,5.39,5.96,7.69c2.31,2.3,4.9,4.31,7.69,5.95
		c2.79,1.65,5.84,2.94,9.05,3.84c6.42,1.8,13.51,1.8,19.94,0c3.21-0.91,6.26-2.2,9.05-3.84c2.8-1.65,5.39-3.65,7.69-5.95
		c2.3-2.3,4.32-4.88,5.99-7.69c1.67-2.79,2.97-5.83,3.87-9.04c0.9-3.2,1.36-6.57,1.36-10.02c0-3.44-0.46-6.82-1.36-10.02
		c-0.91-3.21-2.21-6.26-3.87-9.07c-1.67-2.82-3.68-5.41-5.99-7.72c-2.3-2.3-4.89-4.31-7.69-5.98c-2.8-1.67-5.84-2.97-9.05-3.87
		C262.38,90.29,259.03,89.83,255.62,89.83z M255.59,155.8c-3.77,0-7.34-0.76-10.63-2.27c-3.29-1.51-6.19-3.55-8.64-6.08
		c-2.45-2.53-4.41-5.51-5.84-8.88c-1.42-3.36-2.15-6.97-2.15-10.73c0-3.67,0.72-7.26,2.15-10.67c1.42-3.4,3.39-6.43,5.83-9.02
		c2.45-2.59,5.36-4.69,8.64-6.23c3.29-1.55,6.86-2.33,10.63-2.33c3.73,0,7.28,0.78,10.55,2.33c3.26,1.54,6.15,3.64,8.58,6.23
		c2.43,2.59,4.38,5.62,5.78,9.02c1.41,3.41,2.12,6.99,2.12,10.67c0,3.76-0.71,7.37-2.12,10.73c-1.4,3.36-3.35,6.35-5.78,8.88
		c-2.43,2.53-5.32,4.57-8.58,6.08C262.87,155.04,259.32,155.8,255.59,155.8z M255.59,100.6c-3.62,0-7.06,0.75-10.21,2.23
		c-3.17,1.49-5.97,3.51-8.34,6.01c-2.37,2.5-4.26,5.43-5.64,8.72c-1.37,3.28-2.07,6.74-2.07,10.28c0,3.62,0.7,7.1,2.07,10.34
		c1.38,3.25,3.27,6.13,5.64,8.57c2.36,2.44,5.17,4.41,8.34,5.87c3.15,1.44,6.59,2.18,10.21,2.18c3.58,0,6.99-0.73,10.12-2.18
		c3.15-1.46,5.94-3.43,8.28-5.86c2.34-2.44,4.22-5.32,5.58-8.57c1.35-3.24,2.04-6.72,2.04-10.35c0-3.54-0.69-7-2.04-10.29
		c-1.36-3.28-3.23-6.22-5.58-8.72c-2.34-2.5-5.13-4.52-8.28-6.01C262.58,101.35,259.18,100.6,255.59,100.6z"/>
</g>
<g>
	<path class="st0" d="M320.75,99.22c1.09-1.36,2.26-2.64,3.51-3.83c1.25-1.19,2.64-2.23,4.18-3.13c1.54-0.9,3.29-1.6,5.24-2.1
		c1.95-0.51,4.22-0.76,6.79-0.76c6.17,0,11.2,1.14,15.1,3.42c3.9,2.28,7.03,5.61,9.37,9.98c1.09-2.46,2.51-4.55,4.25-6.26
		c1.74-1.72,3.69-3.11,5.85-4.18c2.16-1.07,4.49-1.84,6.96-2.31c2.48-0.47,5.01-0.71,7.58-0.71c4.8,0,9.03,0.83,12.7,2.49
		c3.67,1.66,6.74,3.92,9.22,6.79c2.48,2.87,4.35,6.23,5.62,10.1c1.27,3.86,1.9,8,1.9,12.41v39.75c0,1.33-0.34,2.32-1.03,2.99
		s-1.55,0.99-2.6,0.99h-4.33c-1.44,0-2.37-0.29-2.78-0.88c-0.41-0.58-0.62-1.56-0.62-2.93v-39.92c0-2.34-0.32-4.73-0.97-7.17
		c-0.64-2.44-1.7-4.65-3.16-6.64c-1.46-1.99-3.41-3.61-5.82-4.86c-2.42-1.25-5.39-1.87-8.9-1.87c-2.97,0-5.62,0.46-7.96,1.4
		s-4.32,2.29-5.94,4.07s-2.86,3.94-3.72,6.5c-0.86,2.56-1.29,5.43-1.29,8.63v39.75c0,1.33-0.34,2.32-1.03,2.98
		c-0.68,0.66-1.55,0.99-2.6,0.99h-4.33c-1.44,0-2.37-0.29-2.78-0.88c-0.41-0.59-0.61-1.56-0.61-2.93v-39.93
		c0-2.34-0.32-4.73-0.97-7.17c-0.64-2.44-1.7-4.65-3.16-6.65c-1.46-1.99-3.41-3.61-5.82-4.86c-2.42-1.25-5.39-1.87-8.9-1.87
		c-2.22,0-4.47,0.4-6.73,1.2s-4.3,1.98-6.12,3.54c-1.81,1.56-3.29,3.49-4.42,5.8c-1.13,2.3-1.7,4.94-1.7,7.9v43.26
		c0,1.72-0.86,2.58-2.58,2.58h-6.03c-1.84,0-2.75-0.86-2.75-2.58V93.14c0-0.78,0.25-1.41,0.76-1.88s1.11-0.7,1.82-0.7h6.09
		c0.82,0,1.47,0.26,1.96,0.76c0.49,0.51,0.73,1.11,0.73,1.81V99.22z"/>
	<path class="st0" d="M366.29,165.4h-4.33c-1.63,0-2.67-0.36-3.19-1.09c-0.48-0.68-0.71-1.73-0.71-3.21v-39.92
		c0-2.29-0.32-4.66-0.95-7.04c-0.62-2.37-1.66-4.54-3.08-6.48c-1.41-1.92-3.31-3.5-5.65-4.71c-2.34-1.2-5.26-1.82-8.67-1.82
		c-2.16,0-4.37,0.39-6.57,1.17c-2.19,0.78-4.2,1.94-5.96,3.45c-1.76,1.51-3.2,3.41-4.3,5.64c-1.09,2.22-1.65,4.8-1.65,7.68v43.26
		c0,1.98-1.09,3.08-3.08,3.08h-6.03c-2.1,0-3.25-1.09-3.25-3.08V93.14c0-0.92,0.31-1.68,0.92-2.24c0.6-0.55,1.32-0.83,2.16-0.83
		h6.09c0.95,0,1.73,0.31,2.32,0.91c0.58,0.6,0.87,1.33,0.87,2.16v4.7c0.84-0.98,1.74-1.92,2.67-2.81c1.27-1.21,2.71-2.29,4.28-3.2
		c1.57-0.92,3.38-1.64,5.37-2.16c1.99-0.52,4.32-0.78,6.92-0.78c6.23,0,11.4,1.17,15.36,3.49c3.7,2.17,6.75,5.3,9.07,9.32
		c1.06-2.13,2.38-3.99,3.93-5.52c1.77-1.75,3.78-3.19,5.98-4.28c2.19-1.09,4.58-1.88,7.09-2.36c2.5-0.47,5.09-0.71,7.67-0.71
		c4.84,0,9.19,0.85,12.91,2.53c3.72,1.69,6.88,4.01,9.39,6.92c2.51,2.91,4.44,6.37,5.72,10.27c1.28,3.89,1.93,8.12,1.93,12.56v39.75
		c0,1.46-0.4,2.59-1.18,3.35c-0.78,0.75-1.77,1.14-2.95,1.14h-4.33c-1.63,0-2.68-0.36-3.19-1.09c-0.47-0.67-0.71-1.73-0.71-3.21
		v-39.92c0-2.29-0.32-4.66-0.95-7.04c-0.63-2.37-1.66-4.55-3.08-6.47c-1.41-1.92-3.31-3.5-5.65-4.71c-2.34-1.2-5.26-1.82-8.67-1.82
		c-2.89,0-5.51,0.46-7.78,1.37c-2.26,0.9-4.2,2.23-5.76,3.94c-1.56,1.71-2.78,3.84-3.61,6.32c-0.84,2.49-1.26,5.34-1.26,8.47v39.75
		c0,1.46-0.4,2.58-1.18,3.34C368.47,165.02,367.47,165.4,366.29,165.4z M339.71,100.13c3.57,0,6.64,0.65,9.13,1.93
		c2.48,1.28,4.49,2.96,6,5.01c1.5,2.04,2.58,4.33,3.24,6.81c0.65,2.47,0.98,4.92,0.98,7.3v39.92c0,1.25,0.18,2.14,0.52,2.64
		c0.31,0.43,1.13,0.66,2.37,0.66h4.33c0.93,0,1.66-0.28,2.26-0.85c0.58-0.56,0.87-1.45,0.87-2.62v-39.75c0-3.24,0.44-6.19,1.31-8.79
		c0.88-2.61,2.16-4.86,3.82-6.68c1.66-1.82,3.72-3.24,6.12-4.2c2.38-0.96,5.12-1.44,8.15-1.44c3.57,0,6.64,0.65,9.13,1.93
		c2.48,1.28,4.5,2.97,6,5.01c1.49,2.03,2.58,4.32,3.24,6.81c0.65,2.47,0.98,4.92,0.98,7.3v39.92c0,1.26,0.18,2.14,0.52,2.64
		c0.3,0.44,1.12,0.67,2.37,0.67h4.33c0.93,0,1.67-0.28,2.26-0.85c0.58-0.56,0.87-1.45,0.87-2.63v-39.75c0-4.34-0.63-8.46-1.88-12.25
		c-1.24-3.78-3.1-7.12-5.52-9.93c-2.42-2.8-5.46-5.04-9.05-6.66c-3.59-1.62-7.79-2.44-12.5-2.44c-2.53,0-5.04,0.23-7.49,0.7
		c-2.43,0.46-4.73,1.22-6.83,2.27c-2.11,1.04-4.03,2.42-5.72,4.09c-1.68,1.66-3.08,3.71-4.14,6.11l-0.42,0.93l-0.48-0.9
		c-2.29-4.27-5.37-7.56-9.18-9.79c-3.8-2.23-8.8-3.35-14.85-3.35c-2.51,0-4.76,0.25-6.66,0.75c-1.9,0.49-3.62,1.18-5.12,2.05
		c-1.5,0.88-2.88,1.91-4.09,3.06c-1.23,1.17-2.4,2.45-3.47,3.78l-0.89,1.11v-7.51c0-0.57-0.19-1.05-0.59-1.47
		c-0.4-0.41-0.92-0.61-1.6-0.61h-6.09c-0.58,0-1.06,0.19-1.48,0.57c-0.4,0.37-0.6,0.87-0.6,1.51v69.19c0,1.44,0.69,2.08,2.25,2.08
		h6.03c1.44,0,2.08-0.64,2.08-2.08v-43.26c0-3.03,0.59-5.76,1.75-8.12c1.15-2.35,2.68-4.35,4.54-5.96c1.85-1.59,3.97-2.82,6.28-3.63
		C335.12,100.54,337.44,100.13,339.71,100.13z"/>
</g>
<g>
	<path class="st0" d="M488.52,147.87c0.35-0.31,0.73-0.6,1.14-0.88c0.41-0.27,0.83-0.41,1.26-0.41c0.58,0,1.15,0.35,1.7,1.05
		c0.78,1.06,1.42,1.91,1.9,2.58s0.89,1.19,1.2,1.58c0.31,0.43,0.54,0.74,0.7,0.93c0.19,0.24,0.35,0.48,0.47,0.73
		c0.12,0.26,0.18,0.54,0.18,0.85c0,0.43-0.17,0.89-0.5,1.38c-0.33,0.49-0.91,1.06-1.73,1.73c-1.68,1.33-3.42,2.53-5.24,3.6
		c-1.81,1.07-3.72,2-5.71,2.78c-1.99,0.78-4.09,1.39-6.29,1.82c-2.21,0.43-4.54,0.64-7,0.64c-3.47,0-6.83-0.46-10.07-1.38
		c-3.24-0.92-6.29-2.23-9.16-3.93c-2.87-1.7-5.48-3.72-7.84-6.06c-2.36-2.34-4.4-4.94-6.12-7.79c-1.72-2.85-3.04-5.9-3.98-9.16
		c-0.94-3.26-1.41-6.64-1.41-10.16s0.44-6.91,1.32-10.19c0.88-3.28,2.13-6.34,3.75-9.19c1.62-2.85,3.58-5.45,5.88-7.79
		c2.3-2.34,4.89-4.35,7.76-6.03c2.87-1.68,5.97-2.98,9.31-3.89c3.34-0.91,6.86-1.38,10.57-1.38c2.93,0,5.83,0.34,8.72,1
		c2.89,0.66,5.66,1.63,8.31,2.9c2.65,1.27,5.14,2.84,7.46,4.71c2.32,1.88,4.4,4.02,6.23,6.44c2.5,3.36,4.35,7.18,5.56,11.48
		c1.21,4.29,1.78,9.23,1.7,14.81c0,1.83-0.86,2.75-2.58,2.75h-61.7c0.66,3.12,1.83,6.01,3.48,8.66c1.66,2.65,3.65,4.97,5.97,6.94
		c2.32,1.97,4.91,3.51,7.76,4.62c2.85,1.11,5.79,1.67,8.84,1.67c2.15,0,4.09-0.21,5.82-0.61c1.74-0.41,3.32-0.96,4.74-1.64
		c1.42-0.68,2.74-1.46,3.95-2.34c1.21-0.88,2.38-1.78,3.51-2.72L488.52,147.87z M456.44,104.55c-2.97,1.99-5.52,4.5-7.67,7.52
		c-2.15,3.03-3.61,6.35-4.39,9.98h52.92c-0.43-3.24-1.43-6.19-3.01-8.84c-1.58-2.65-3.56-4.92-5.94-6.79
		c-2.38-1.88-5.06-3.33-8.05-4.36c-2.99-1.03-6.08-1.55-9.28-1.55c-2.54,0-5.04,0.33-7.52,0.99
		C461.01,102.17,458.66,103.19,456.44,104.55z"/>
	<path class="st0" d="M470.61,166.75c-3.49,0-6.93-0.47-10.21-1.39c-3.27-0.93-6.4-2.27-9.28-3.98c-2.89-1.71-5.56-3.77-7.94-6.13
		c-2.38-2.36-4.46-5.01-6.19-7.88c-1.73-2.88-3.09-6-4.03-9.28c-0.95-3.29-1.43-6.75-1.43-10.29c0-3.53,0.45-7,1.33-10.32
		c0.89-3.31,2.17-6.44,3.8-9.31c1.63-2.88,3.64-5.53,5.96-7.89c2.33-2.37,4.97-4.42,7.86-6.11c2.9-1.69,6.07-3.02,9.43-3.95
		c6.03-1.65,12.91-1.9,19.53-0.38c2.92,0.67,5.75,1.66,8.42,2.93c2.67,1.28,5.22,2.88,7.56,4.77c2.35,1.9,4.47,4.09,6.32,6.53
		c2.53,3.4,4.42,7.31,5.64,11.64c1.22,4.32,1.79,9.35,1.72,14.95c0,2.09-1.09,3.25-3.08,3.25h-61.08c0.67,2.82,1.77,5.48,3.28,7.9
		c1.63,2.6,3.6,4.89,5.87,6.82c2.27,1.93,4.83,3.46,7.61,4.54c2.78,1.08,5.69,1.63,8.66,1.63c2.09,0,4.02-0.2,5.71-0.6
		c1.7-0.4,3.26-0.94,4.64-1.6c1.39-0.67,2.69-1.44,3.87-2.3c1.19-0.86,2.36-1.77,3.49-2.7l0.1-0.11c0.37-0.33,0.77-0.63,1.19-0.92
		c1.19-0.79,2.53-0.66,3.63,0.75l1.91,2.59c0.48,0.66,0.88,1.18,1.19,1.56c0.32,0.44,0.55,0.74,0.7,0.93
		c0.22,0.27,0.4,0.55,0.53,0.84c0.15,0.32,0.22,0.68,0.22,1.06c0,0.53-0.2,1.09-0.58,1.66c-0.36,0.53-0.96,1.13-1.83,1.83
		c-1.7,1.34-3.48,2.57-5.3,3.64c-1.83,1.08-3.77,2.03-5.78,2.81c-2.01,0.79-4.15,1.41-6.38,1.84
		C475.46,166.53,473.07,166.75,470.61,166.75z M470.61,89.83c-3.64,0-7.15,0.46-10.43,1.36c-3.27,0.9-6.36,2.19-9.19,3.84
		c-2.81,1.64-5.39,3.64-7.65,5.95c-2.26,2.3-4.21,4.88-5.8,7.68c-1.59,2.79-2.83,5.84-3.7,9.07c-0.86,3.23-1.3,6.61-1.3,10.06
		c0,3.45,0.47,6.82,1.39,10.02c0.92,3.2,2.24,6.24,3.93,9.04c1.69,2.8,3.72,5.39,6.04,7.69c2.32,2.3,4.93,4.32,7.75,5.98
		c2.81,1.67,5.85,2.97,9.04,3.88c3.19,0.9,6.53,1.36,9.93,1.36c2.4,0,4.72-0.21,6.9-0.63c2.16-0.42,4.25-1.03,6.2-1.79
		c1.96-0.76,3.85-1.69,5.63-2.74c1.78-1.06,3.53-2.25,5.18-3.56c0.77-0.63,1.32-1.17,1.62-1.61c0.27-0.4,0.41-0.77,0.41-1.09
		c0-0.24-0.04-0.45-0.13-0.64c-0.09-0.2-0.23-0.41-0.4-0.62c-0.16-0.2-0.4-0.52-0.72-0.96c-0.3-0.38-0.71-0.91-1.2-1.58l-1.9-2.58
		c-0.78-1-1.53-1.02-2.28-0.52c-0.38,0.25-0.74,0.53-1.07,0.82l-0.1,0.11c-1.18,0.98-2.37,1.9-3.58,2.78
		c-1.23,0.89-2.58,1.7-4.03,2.39c-1.45,0.69-3.08,1.26-4.84,1.67c-1.77,0.42-3.77,0.63-5.94,0.63c-3.09,0-6.13-0.57-9.02-1.7
		c-2.88-1.12-5.54-2.71-7.9-4.71c-2.35-1.99-4.39-4.36-6.07-7.05c-1.68-2.69-2.88-5.66-3.55-8.83l-0.13-0.6h62.32
		c1.44,0,2.08-0.69,2.08-2.25c0.08-5.51-0.49-10.45-1.68-14.67c-1.19-4.21-3.03-8.02-5.48-11.31c-1.79-2.37-3.86-4.5-6.15-6.35
		c-2.28-1.84-4.76-3.4-7.37-4.65c-2.6-1.24-5.36-2.21-8.21-2.86C476.37,90.16,473.47,89.83,470.61,89.83z M497.87,122.55h-54.11
		l0.13-0.61c0.79-3.68,2.3-7.09,4.47-10.16c2.17-3.06,4.79-5.63,7.8-7.65l0.02-0.01c2.25-1.38,4.67-2.42,7.19-3.1
		c5.67-1.52,11.66-1.31,17.09,0.57c3.03,1.05,5.78,2.55,8.2,4.44c2.42,1.9,4.46,4.23,6.06,6.92c1.61,2.7,2.64,5.74,3.08,9.03
		L497.87,122.55z M445,121.55h51.72c-0.46-2.94-1.42-5.66-2.87-8.09c-1.54-2.59-3.5-4.83-5.82-6.65c-2.32-1.83-4.98-3.27-7.9-4.29
		c-5.24-1.81-11.02-2.01-16.51-0.54c-2.42,0.65-4.74,1.65-6.91,2.98c-2.9,1.95-5.43,4.43-7.53,7.39
		C447.2,115.15,445.8,118.24,445,121.55z"/>
</g>
<g>
	<path class="st0" d="M613.91,147.87c0.35-0.31,0.73-0.6,1.14-0.88c0.41-0.27,0.83-0.41,1.26-0.41c0.59,0,1.15,0.35,1.7,1.05
		c0.78,1.06,1.41,1.91,1.9,2.58s0.89,1.19,1.2,1.58c0.31,0.43,0.55,0.74,0.7,0.93c0.19,0.24,0.35,0.48,0.47,0.73
		c0.12,0.26,0.18,0.54,0.18,0.85c0,0.43-0.17,0.89-0.5,1.38c-0.33,0.49-0.91,1.06-1.73,1.73c-1.68,1.33-3.42,2.53-5.24,3.6
		c-1.81,1.07-3.72,2-5.71,2.78c-1.99,0.78-4.09,1.39-6.29,1.82c-2.2,0.43-4.54,0.64-7,0.64c-3.47,0-6.83-0.46-10.07-1.38
		c-3.24-0.92-6.29-2.23-9.16-3.93c-2.87-1.7-5.48-3.72-7.85-6.06c-2.36-2.34-4.4-4.94-6.12-7.79c-1.72-2.85-3.04-5.9-3.98-9.16
		c-0.94-3.26-1.4-6.64-1.4-10.16s0.44-6.91,1.32-10.19c0.88-3.28,2.13-6.34,3.75-9.19c1.62-2.85,3.58-5.45,5.88-7.79
		c2.3-2.34,4.89-4.35,7.76-6.03s5.97-2.98,9.31-3.89c3.34-0.91,6.86-1.38,10.57-1.38c2.93,0,5.83,0.34,8.72,1
		c2.89,0.66,5.66,1.63,8.31,2.9c2.65,1.27,5.14,2.84,7.46,4.71c2.32,1.88,4.4,4.02,6.23,6.44c2.5,3.36,4.35,7.18,5.56,11.48
		c1.21,4.29,1.77,9.23,1.7,14.81c0,1.83-0.86,2.75-2.58,2.75h-61.7c0.66,3.12,1.82,6.01,3.48,8.66c1.66,2.65,3.65,4.97,5.97,6.94
		c2.32,1.97,4.91,3.51,7.76,4.62c2.85,1.11,5.79,1.67,8.84,1.67c2.15,0,4.09-0.21,5.83-0.61c1.74-0.41,3.32-0.96,4.74-1.64
		s2.74-1.46,3.95-2.34c1.21-0.88,2.38-1.78,3.51-2.72L613.91,147.87z M581.83,104.55c-2.97,1.99-5.52,4.5-7.67,7.52
		c-2.15,3.03-3.61,6.35-4.39,9.98h52.92c-0.43-3.24-1.43-6.19-3.02-8.84c-1.58-2.65-3.56-4.92-5.94-6.79
		c-2.38-1.88-5.06-3.33-8.05-4.36c-2.98-1.03-6.08-1.55-9.28-1.55c-2.54,0-5.04,0.33-7.52,0.99
		C586.4,102.17,584.05,103.19,581.83,104.55z M603.02,80.9c-0.74,1.64-1.78,2.46-3.1,2.46h-5.39c-0.78,0-1.3-0.14-1.55-0.41
		c-0.25-0.27-0.38-0.68-0.38-1.23c0.08-0.27,0.14-0.58,0.18-0.91c0.04-0.33,0.19-0.73,0.47-1.2l5.15-12
		c0.47-0.86,0.93-1.48,1.38-1.88c0.45-0.39,1.04-0.58,1.79-0.58h5.79c1.01,0,1.52,0.43,1.52,1.29c0,0.31-0.02,0.64-0.06,0.99
		c-0.04,0.35-0.2,0.74-0.47,1.17L603.02,80.9z"/>
	<path class="st0" d="M595.99,166.75c-3.49,0-6.93-0.47-10.2-1.39c-3.27-0.93-6.39-2.27-9.28-3.98c-2.89-1.71-5.56-3.77-7.94-6.13
		c-2.38-2.36-4.46-5.01-6.19-7.88c-1.73-2.87-3.09-6-4.03-9.28c-0.94-3.29-1.42-6.75-1.42-10.29c0-3.54,0.45-7.01,1.33-10.32
		c0.89-3.31,2.16-6.44,3.79-9.31c1.63-2.88,3.64-5.53,5.96-7.89c2.33-2.37,4.97-4.42,7.86-6.11c2.9-1.69,6.07-3.02,9.43-3.95
		c6.03-1.65,12.91-1.9,19.53-0.38c2.92,0.67,5.75,1.66,8.42,2.93c2.68,1.28,5.22,2.89,7.56,4.77c2.34,1.89,4.47,4.09,6.32,6.53
		c2.53,3.4,4.42,7.31,5.65,11.64c1.21,4.32,1.79,9.35,1.72,14.95c0,2.09-1.09,3.25-3.08,3.25h-61.08c0.67,2.82,1.77,5.48,3.28,7.9
		c1.62,2.6,3.6,4.89,5.87,6.82c2.27,1.93,4.83,3.46,7.62,4.54c2.77,1.08,5.69,1.63,8.66,1.63c2.09,0,4.02-0.2,5.71-0.6
		c1.7-0.4,3.26-0.94,4.64-1.6c1.39-0.67,2.69-1.44,3.87-2.3c1.2-0.88,2.38-1.78,3.49-2.7l0.11-0.11c0.37-0.32,0.77-0.63,1.19-0.92
		c1.2-0.79,2.53-0.65,3.63,0.75l1.91,2.59c0.48,0.66,0.88,1.18,1.19,1.57c0.32,0.43,0.55,0.74,0.7,0.93
		c0.22,0.26,0.4,0.54,0.53,0.83c0.15,0.33,0.22,0.68,0.22,1.06c0,0.53-0.2,1.08-0.58,1.66c-0.37,0.54-0.97,1.14-1.83,1.83
		c-1.68,1.33-3.46,2.56-5.3,3.64c-1.83,1.08-3.77,2.03-5.78,2.81c-2.01,0.79-4.16,1.41-6.38,1.84
		C600.85,166.53,598.46,166.75,595.99,166.75z M595.99,89.83c-3.64,0-7.15,0.46-10.43,1.36c-3.27,0.9-6.36,2.19-9.19,3.84
		c-2.81,1.64-5.38,3.64-7.65,5.95c-2.26,2.3-4.21,4.88-5.8,7.68c-1.59,2.8-2.83,5.85-3.7,9.07c-0.86,3.22-1.3,6.6-1.3,10.06
		c0,3.45,0.47,6.82,1.38,10.02c0.92,3.2,2.24,6.24,3.93,9.04c1.69,2.8,3.72,5.39,6.04,7.69c2.32,2.3,4.93,4.31,7.75,5.98
		c2.81,1.67,5.85,2.97,9.04,3.88c3.19,0.9,6.53,1.36,9.93,1.36c2.4,0,4.73-0.21,6.9-0.63c2.16-0.42,4.25-1.03,6.21-1.79
		c1.96-0.77,3.86-1.69,5.63-2.74c1.79-1.06,3.54-2.26,5.18-3.56c0.77-0.62,1.32-1.17,1.63-1.62c0.27-0.4,0.41-0.77,0.41-1.09
		c0-0.24-0.04-0.45-0.13-0.64c-0.1-0.21-0.23-0.42-0.4-0.62c-0.16-0.2-0.4-0.52-0.72-0.96c-0.3-0.38-0.71-0.91-1.2-1.58l-1.9-2.58
		c-0.78-1-1.52-1.02-2.28-0.52c-0.38,0.26-0.75,0.53-1.08,0.82l-0.11,0.11c-1.16,0.96-2.35,1.89-3.57,2.77
		c-1.23,0.9-2.59,1.7-4.03,2.39c-1.45,0.69-3.07,1.26-4.84,1.67c-1.77,0.42-3.77,0.63-5.94,0.63c-3.09,0-6.13-0.57-9.02-1.7
		c-2.89-1.12-5.54-2.71-7.9-4.71c-2.35-1.99-4.39-4.37-6.07-7.05c-1.68-2.69-2.88-5.66-3.55-8.82l-0.13-0.6h62.32
		c1.44,0,2.08-0.69,2.08-2.25c0.08-5.52-0.49-10.45-1.68-14.67c-1.19-4.21-3.03-8.02-5.48-11.31c-1.8-2.37-3.87-4.51-6.15-6.35
		c-2.28-1.84-4.76-3.4-7.37-4.65c-2.6-1.24-5.36-2.21-8.21-2.86C601.76,90.16,598.86,89.83,595.99,89.83z M623.26,122.55h-54.11
		l0.13-0.6c0.79-3.68,2.29-7.1,4.47-10.17c2.17-3.06,4.79-5.64,7.8-7.65l0.02-0.01c2.25-1.38,4.67-2.42,7.19-3.1
		c5.68-1.52,11.67-1.31,17.09,0.57c3.03,1.05,5.79,2.55,8.2,4.44c2.42,1.9,4.46,4.23,6.06,6.92c1.61,2.7,2.64,5.74,3.08,9.03
		L623.26,122.55z M570.39,121.55h51.72c-0.46-2.94-1.42-5.66-2.87-8.09c-1.54-2.59-3.5-4.83-5.82-6.65
		c-2.32-1.83-4.98-3.27-7.9-4.28c-5.24-1.81-11.02-2.01-16.51-0.54c-2.42,0.65-4.75,1.65-6.91,2.98c-2.9,1.94-5.43,4.43-7.53,7.39
		C572.59,115.15,571.19,118.24,570.39,121.55z M599.91,83.86h-5.38c-0.93,0-1.56-0.19-1.92-0.57c-0.34-0.36-0.51-0.89-0.51-1.57
		l0.02-0.14c0.07-0.25,0.13-0.53,0.16-0.83c0.05-0.4,0.22-0.86,0.53-1.39l5.13-11.95c0.52-0.96,1.01-1.62,1.51-2.05
		c0.54-0.47,1.25-0.71,2.11-0.71h5.79c1.29,0,2.02,0.65,2.02,1.79c0,0.33-0.02,0.68-0.06,1.05c-0.05,0.43-0.23,0.88-0.54,1.38
		l-5.29,12.23C602.65,82.93,601.45,83.86,599.91,83.86z M593.1,81.79c0.01,0.28,0.06,0.62,0.25,0.82c0.06,0.06,0.3,0.25,1.19,0.25
		h5.38c1.12,0,1.99-0.71,2.65-2.16l5.32-12.29c0.27-0.43,0.4-0.76,0.43-1.03c0.04-0.33,0.06-0.64,0.06-0.94
		c0-0.38-0.08-0.79-1.02-0.79h-5.79c-0.62,0-1.1,0.15-1.46,0.46c-0.4,0.35-0.83,0.93-1.27,1.74l-5.13,11.96
		c-0.26,0.46-0.4,0.8-0.43,1.06C593.23,81.2,593.17,81.5,593.1,81.79z"/>
</g>
<g>
	<path class="st0" d="M661.03,100.4c1.09-1.37,2.32-2.7,3.69-4.01c1.37-1.31,2.9-2.48,4.6-3.51c1.7-1.03,3.58-1.88,5.65-2.52
		c2.07-0.64,4.39-0.96,6.97-0.96c4.8,0,9.03,0.83,12.7,2.49c3.67,1.66,6.74,3.92,9.22,6.79c2.48,2.87,4.35,6.23,5.62,10.1
		c1.27,3.86,1.9,8,1.9,12.41v39.75c0,1.33-0.34,2.32-1.03,2.98c-0.68,0.66-1.55,0.99-2.6,0.99h-4.33c-1.44,0-2.37-0.29-2.78-0.88
		c-0.41-0.59-0.62-1.56-0.62-2.93v-39.93c0-2.34-0.32-4.73-0.97-7.17c-0.64-2.44-1.7-4.65-3.16-6.65c-1.46-1.99-3.41-3.61-5.83-4.86
		c-2.42-1.25-5.39-1.87-8.9-1.87c-2.23,0-4.53,0.4-6.91,1.2c-2.38,0.8-4.55,1.98-6.5,3.54c-1.95,1.56-3.56,3.49-4.83,5.8
		c-1.27,2.3-1.9,4.94-1.9,7.9v43.26c0,1.72-0.86,2.58-2.58,2.58h-6.03c-1.84,0-2.75-0.86-2.75-2.58V93.14
		c0-0.78,0.25-1.41,0.76-1.88c0.51-0.47,1.11-0.7,1.81-0.7h6.09c0.82,0,1.47,0.26,1.96,0.76s0.73,1.11,0.73,1.81V100.4z"/>
	<path class="st0" d="M707.74,165.4h-4.33c-1.63,0-2.67-0.36-3.19-1.09c-0.48-0.68-0.71-1.73-0.71-3.21v-39.92
		c0-2.28-0.32-4.65-0.95-7.04c-0.62-2.36-1.66-4.54-3.08-6.48c-1.41-1.92-3.31-3.5-5.65-4.71c-2.34-1.2-5.25-1.82-8.67-1.82
		c-2.16,0-4.43,0.4-6.75,1.17c-2.31,0.78-4.45,1.94-6.34,3.46c-1.89,1.51-3.47,3.41-4.71,5.65c-1.22,2.21-1.84,4.79-1.84,7.66v43.26
		c0,1.98-1.09,3.08-3.08,3.08h-6.03c-2.1,0-3.25-1.09-3.25-3.08V93.14c0-0.92,0.31-1.68,0.92-2.24c0.6-0.55,1.32-0.83,2.15-0.83
		h6.09c0.96,0,1.74,0.31,2.32,0.92c0.58,0.6,0.87,1.33,0.87,2.16v5.87c0.87-1.01,1.82-2.01,2.84-2.99c1.39-1.33,2.96-2.53,4.68-3.58
		c1.74-1.06,3.68-1.92,5.76-2.57c2.1-0.66,4.5-0.99,7.11-0.99c4.85,0,9.19,0.85,12.91,2.53c3.71,1.68,6.87,4,9.39,6.92
		c2.51,2.91,4.43,6.36,5.72,10.27c1.28,3.9,1.93,8.13,1.93,12.57v39.75c0,1.46-0.4,2.58-1.18,3.34
		C709.92,165.02,708.92,165.4,707.74,165.4z M681.17,100.13c3.57,0,6.64,0.65,9.12,1.93c2.48,1.28,4.5,2.96,6,5.01
		c1.5,2.04,2.59,4.33,3.24,6.82c0.65,2.47,0.98,4.92,0.98,7.3v39.92c0,1.56,0.29,2.3,0.53,2.64c0.3,0.43,1.12,0.66,2.37,0.66h4.33
		c0.93,0,1.67-0.28,2.26-0.85c0.58-0.56,0.87-1.45,0.87-2.62v-39.75c0-4.33-0.63-8.46-1.88-12.25c-1.24-3.78-3.1-7.12-5.52-9.93
		c-2.42-2.8-5.47-5.04-9.05-6.66c-3.59-1.62-7.79-2.45-12.5-2.45c-2.52,0-4.81,0.32-6.82,0.94c-2,0.62-3.87,1.45-5.54,2.47
		c-1.66,1.01-3.18,2.17-4.51,3.44c-1.35,1.3-2.58,2.63-3.64,3.96l-0.89,1.12v-8.69c0-0.57-0.19-1.05-0.59-1.47
		c-0.39-0.41-0.92-0.61-1.6-0.61h-6.09c-0.58,0-1.06,0.19-1.47,0.57c-0.41,0.37-0.6,0.87-0.6,1.51v69.19c0,1.44,0.69,2.08,2.25,2.08
		h6.03c1.44,0,2.08-0.64,2.08-2.08v-43.26c0-3.04,0.66-5.78,1.96-8.14c1.3-2.35,2.96-4.35,4.96-5.95c1.99-1.59,4.23-2.81,6.65-3.62
		C676.52,100.54,678.9,100.13,681.17,100.13z"/>
</g>
<g>
	<path class="st0" d="M779.57,147.87c0.35-0.31,0.73-0.6,1.14-0.88c0.41-0.27,0.83-0.41,1.26-0.41c0.59,0,1.15,0.35,1.7,1.05
		c0.78,1.06,1.42,1.91,1.9,2.58c0.49,0.66,0.89,1.19,1.2,1.58c0.31,0.43,0.54,0.74,0.7,0.93c0.19,0.24,0.35,0.48,0.47,0.73
		c0.12,0.26,0.18,0.54,0.18,0.85c0,0.43-0.17,0.89-0.5,1.38c-0.33,0.49-0.91,1.06-1.73,1.73c-1.68,1.33-3.42,2.53-5.24,3.6
		c-1.81,1.07-3.72,2-5.71,2.78c-1.99,0.78-4.09,1.39-6.29,1.82c-2.21,0.43-4.54,0.64-7,0.64c-3.47,0-6.83-0.46-10.07-1.38
		c-3.24-0.92-6.29-2.23-9.16-3.93c-2.87-1.7-5.48-3.72-7.84-6.06c-2.36-2.34-4.4-4.94-6.12-7.79c-1.72-2.85-3.04-5.9-3.98-9.16
		c-0.94-3.26-1.41-6.64-1.41-10.16s0.44-6.91,1.32-10.19c0.88-3.28,2.13-6.34,3.75-9.19c1.62-2.85,3.58-5.45,5.88-7.79
		c2.3-2.34,4.89-4.35,7.76-6.03c2.87-1.68,5.97-2.98,9.31-3.89c3.34-0.91,6.86-1.38,10.57-1.38c2.93,0,5.83,0.34,8.72,1
		c2.89,0.66,5.66,1.63,8.31,2.9s5.14,2.84,7.46,4.71c2.32,1.88,4.4,4.02,6.23,6.44c2.5,3.36,4.35,7.18,5.56,11.48
		c1.21,4.29,1.78,9.23,1.7,14.81c0,1.83-0.86,2.75-2.58,2.75h-61.7c0.66,3.12,1.83,6.01,3.48,8.66c1.66,2.65,3.65,4.97,5.97,6.94
		c2.32,1.97,4.91,3.51,7.76,4.62c2.85,1.11,5.79,1.67,8.84,1.67c2.15,0,4.09-0.21,5.82-0.61c1.74-0.41,3.32-0.96,4.74-1.64
		c1.42-0.68,2.74-1.46,3.95-2.34c1.21-0.88,2.38-1.78,3.51-2.72L779.57,147.87z M747.49,104.55c-2.97,1.99-5.52,4.5-7.67,7.52
		c-2.15,3.03-3.61,6.35-4.39,9.98h52.92c-0.43-3.24-1.43-6.19-3.01-8.84c-1.58-2.65-3.56-4.92-5.94-6.79
		c-2.38-1.88-5.06-3.33-8.05-4.36c-2.99-1.03-6.08-1.55-9.28-1.55c-2.54,0-5.04,0.33-7.52,0.99
		C752.06,102.17,749.71,103.19,747.49,104.55z"/>
	<path class="st0" d="M761.66,166.75c-3.49,0-6.93-0.47-10.2-1.39c-3.27-0.93-6.4-2.27-9.28-3.98c-2.89-1.71-5.56-3.77-7.94-6.13
		c-2.38-2.36-4.46-5.01-6.19-7.88c-1.73-2.88-3.09-6-4.03-9.28c-0.95-3.29-1.43-6.75-1.43-10.29c0-3.53,0.45-7,1.33-10.32
		c0.89-3.31,2.17-6.44,3.8-9.31c1.63-2.88,3.64-5.53,5.96-7.89c2.33-2.37,4.97-4.42,7.86-6.11c2.9-1.69,6.07-3.02,9.43-3.95
		c6.04-1.65,12.91-1.9,19.53-0.38c2.92,0.67,5.75,1.66,8.42,2.93c2.67,1.28,5.22,2.88,7.56,4.77c2.34,1.89,4.47,4.09,6.32,6.53
		c2.53,3.4,4.42,7.31,5.64,11.64c1.22,4.32,1.79,9.35,1.72,14.95c0,2.09-1.09,3.25-3.08,3.25H736c0.67,2.82,1.77,5.47,3.28,7.9
		c1.63,2.6,3.6,4.9,5.87,6.82c2.27,1.93,4.83,3.46,7.61,4.54c2.78,1.08,5.69,1.63,8.66,1.63c2.1,0,4.02-0.2,5.71-0.6
		c1.7-0.4,3.26-0.94,4.64-1.6c1.39-0.67,2.69-1.44,3.87-2.3c1.19-0.86,2.36-1.77,3.49-2.7l0.1-0.11c0.37-0.32,0.77-0.63,1.19-0.92
		c1.2-0.79,2.53-0.66,3.63,0.75l1.91,2.59c0.48,0.66,0.88,1.18,1.19,1.56c0.32,0.44,0.55,0.74,0.7,0.93
		c0.22,0.27,0.4,0.55,0.53,0.84c0.15,0.32,0.22,0.68,0.22,1.06c0,0.53-0.2,1.09-0.58,1.66c-0.36,0.53-0.96,1.13-1.83,1.83
		c-1.69,1.34-3.47,2.56-5.3,3.64c-1.83,1.08-3.77,2.03-5.78,2.81c-2.01,0.79-4.16,1.41-6.38,1.84
		C766.51,166.53,764.12,166.75,761.66,166.75z M761.66,89.83c-3.64,0-7.15,0.46-10.43,1.36c-3.27,0.9-6.36,2.19-9.19,3.84
		c-2.81,1.64-5.38,3.65-7.65,5.95c-2.26,2.29-4.21,4.88-5.8,7.68c-1.59,2.79-2.83,5.84-3.7,9.07c-0.86,3.23-1.3,6.61-1.3,10.06
		c0,3.45,0.47,6.82,1.39,10.02c0.92,3.2,2.24,6.24,3.93,9.04c1.69,2.8,3.72,5.39,6.04,7.69c2.32,2.3,4.93,4.31,7.75,5.98
		c2.81,1.67,5.85,2.97,9.04,3.88c3.19,0.9,6.53,1.36,9.93,1.36c2.4,0,4.72-0.21,6.9-0.63c2.16-0.42,4.25-1.03,6.21-1.79
		c1.96-0.76,3.85-1.69,5.63-2.74c1.79-1.06,3.53-2.26,5.18-3.56c0.77-0.62,1.32-1.17,1.62-1.61c0.27-0.4,0.41-0.77,0.41-1.09
		c0-0.24-0.04-0.45-0.13-0.64c-0.09-0.2-0.23-0.41-0.4-0.62c-0.16-0.2-0.4-0.52-0.72-0.96c-0.3-0.38-0.71-0.91-1.2-1.58l-1.9-2.58
		c-0.78-1-1.53-1.02-2.28-0.52c-0.38,0.26-0.74,0.53-1.07,0.82l-0.1,0.11c-1.18,0.98-2.37,1.9-3.58,2.78
		c-1.23,0.89-2.58,1.7-4.03,2.39c-1.45,0.69-3.08,1.26-4.84,1.67c-1.77,0.42-3.77,0.63-5.94,0.63c-3.09,0-6.13-0.57-9.02-1.7
		c-2.88-1.12-5.54-2.71-7.9-4.71c-2.35-1.99-4.39-4.36-6.07-7.05c-1.68-2.7-2.88-5.66-3.55-8.83l-0.13-0.6h62.32
		c1.44,0,2.08-0.69,2.08-2.25c0.08-5.51-0.49-10.45-1.68-14.67c-1.19-4.21-3.03-8.02-5.48-11.31c-1.8-2.37-3.87-4.51-6.15-6.35
		c-2.28-1.84-4.76-3.4-7.37-4.65c-2.6-1.24-5.36-2.21-8.21-2.86C767.42,90.16,764.52,89.83,761.66,89.83z M788.92,122.55h-54.11
		l0.13-0.61c0.79-3.68,2.3-7.1,4.47-10.16c2.17-3.06,4.79-5.63,7.8-7.65l0.02-0.01c2.25-1.38,4.67-2.42,7.19-3.1
		c5.68-1.52,11.66-1.31,17.09,0.57c3.03,1.05,5.79,2.55,8.2,4.44c2.42,1.9,4.46,4.23,6.06,6.92c1.61,2.7,2.64,5.74,3.08,9.03
		L788.92,122.55z M736.06,121.55h51.72c-0.46-2.94-1.42-5.66-2.87-8.09c-1.54-2.59-3.5-4.83-5.82-6.65
		c-2.32-1.83-4.98-3.27-7.9-4.29c-5.24-1.81-11.02-2.01-16.51-0.54c-2.42,0.65-4.74,1.65-6.91,2.98c-2.9,1.95-5.43,4.43-7.53,7.39
		C738.25,115.15,736.85,118.24,736.06,121.55z"/>
</g>
<g>
	<path class="st0" d="M826.4,98.4c0.47-0.9,1.14-1.87,2.02-2.93c0.88-1.05,1.94-2.03,3.19-2.93c1.25-0.9,2.67-1.65,4.27-2.25
		c1.6-0.61,3.36-0.91,5.27-0.91c2.11,0,4.01,0.09,5.71,0.26c1.7,0.18,3.31,0.49,4.83,0.94c1.52,0.45,2.99,1.05,4.42,1.81
		c1.43,0.76,2.92,1.73,4.48,2.9c0.47,0.35,0.99,0.8,1.55,1.35c0.57,0.55,0.85,1.19,0.85,1.93c0,0.43-0.1,0.82-0.29,1.17l-3.45,5.32
		c-0.55,0.67-1.09,0.99-1.64,0.99c-0.31,0-0.61-0.11-0.88-0.32c-0.27-0.21-0.61-0.46-1-0.73c-2.42-1.64-4.77-2.84-7.05-3.6
		c-2.28-0.76-4.71-1.14-7.29-1.14c-1.95,0-3.82,0.37-5.62,1.11c-1.8,0.74-3.39,1.8-4.77,3.19c-1.39,1.38-2.5,3.08-3.34,5.09
		c-0.84,2.01-1.26,4.28-1.26,6.82v45.83c0,1.72-0.86,2.58-2.58,2.58h-6.09c-1.8,0-2.69-0.86-2.69-2.58V93.14
		c0-0.78,0.25-1.41,0.76-1.88c0.51-0.47,1.11-0.7,1.82-0.7h6.09c0.82,0,1.47,0.26,1.96,0.76c0.49,0.51,0.73,1.11,0.73,1.81V98.4z"/>
	<path class="st0" d="M823.82,165.4h-6.09c-2.06,0-3.19-1.09-3.19-3.08V93.14c0-0.92,0.31-1.68,0.92-2.24
		c0.6-0.55,1.32-0.83,2.16-0.83h6.09c0.95,0,1.73,0.31,2.32,0.91c0.58,0.6,0.87,1.33,0.87,2.16v3.5c0.33-0.48,0.71-0.97,1.13-1.48
		c0.9-1.08,2-2.09,3.28-3.01c1.28-0.92,2.75-1.7,4.39-2.31c1.65-0.62,3.48-0.94,5.45-0.94c2.12,0,4.05,0.09,5.76,0.27
		c1.72,0.18,3.38,0.5,4.92,0.96c1.55,0.46,3.07,1.08,4.51,1.85c1.45,0.78,2.98,1.76,4.54,2.94c0.48,0.36,1,0.81,1.6,1.39
		c0.67,0.65,1,1.42,1,2.29c0,0.51-0.12,0.98-0.36,1.41l-3.47,5.36c-1.08,1.33-2.29,1.55-3.25,0.8c-0.27-0.21-0.59-0.45-0.98-0.72
		c-2.37-1.6-4.7-2.79-6.92-3.54c-2.22-0.74-4.62-1.11-7.13-1.11c-1.88,0-3.71,0.36-5.43,1.08c-1.73,0.71-3.28,1.75-4.61,3.08
		c-1.33,1.33-2.42,2.99-3.23,4.93c-0.81,1.94-1.22,4.17-1.22,6.63v45.83C826.9,164.31,825.81,165.4,823.82,165.4z M817.62,91.06
		c-0.58,0-1.06,0.19-1.48,0.57c-0.4,0.37-0.6,0.87-0.6,1.51v69.19c0,1.44,0.68,2.08,2.19,2.08h6.09c1.44,0,2.08-0.64,2.08-2.08
		v-45.83c0-2.59,0.44-4.95,1.3-7.01c0.86-2.06,2.02-3.83,3.45-5.25c1.42-1.43,3.08-2.54,4.93-3.3c1.84-0.76,3.8-1.15,5.81-1.15
		c2.62,0,5.12,0.39,7.45,1.17c2.31,0.77,4.73,2,7.17,3.66c0.41,0.28,0.74,0.53,1.02,0.75c0.55,0.43,1.15,0.22,1.82-0.6l3.42-5.28
		c0.14-0.25,0.21-0.56,0.21-0.9c0-0.6-0.23-1.12-0.7-1.57c-0.56-0.54-1.06-0.97-1.5-1.3c-1.53-1.14-3.01-2.11-4.41-2.86
		c-1.38-0.74-2.84-1.34-4.32-1.77c-1.49-0.44-3.08-0.75-4.74-0.92c-1.67-0.17-3.58-0.26-5.66-0.26c-1.84,0-3.56,0.29-5.09,0.88
		c-1.55,0.59-2.95,1.33-4.16,2.19c-1.21,0.87-2.25,1.83-3.1,2.84c-0.85,1.02-1.51,1.98-1.96,2.84l-0.94,1.8v-7.3
		c0-0.57-0.19-1.05-0.59-1.47c-0.4-0.41-0.92-0.61-1.6-0.61H817.62z"/>
</g>
<g>
	<path class="st0" d="M940.9,154.6c-3.36,3.55-7.3,6.35-11.82,8.4c-4.53,2.05-9.45,3.07-14.75,3.07c-3.47,0-6.84-0.46-10.1-1.38
		c-3.26-0.91-6.31-2.22-9.16-3.92c-2.85-1.7-5.44-3.72-7.78-6.06c-2.34-2.34-4.36-4.95-6.06-7.82c-1.7-2.87-3.01-5.93-3.92-9.19
		c-0.92-3.26-1.38-6.65-1.38-10.16c0-3.51,0.46-6.9,1.38-10.16c0.92-3.26,2.22-6.31,3.92-9.16c1.7-2.85,3.72-5.45,6.06-7.79
		c2.34-2.34,4.94-4.35,7.78-6.03c2.85-1.68,5.89-2.98,9.13-3.89c3.24-0.91,6.61-1.38,10.13-1.38c5.19,0,10.01,0.99,14.46,2.96
		c4.45,1.97,8.35,4.67,11.71,8.11v-7.14c0-1.72,0.86-2.58,2.58-2.58l6.61,0.06c1.44,0.19,2.17,1.03,2.17,2.52v0.93v0.18v58.66
		c0,4.45-0.5,8.46-1.49,12.03c-0.99,3.57-2.37,6.72-4.13,9.45c-1.76,2.73-3.85,5.07-6.29,7.02c-2.44,1.95-5.1,3.54-7.99,4.77
		c-2.89,1.23-5.96,2.14-9.22,2.72c-3.26,0.59-6.59,0.88-9.98,0.88c-4.61,0-8.79-0.66-12.56-1.99c-3.77-1.33-7.11-2.99-10.04-4.98
		c-0.39-0.19-0.71-0.44-0.97-0.73c-0.25-0.29-0.38-0.69-0.38-1.2c0-0.16,0.01-0.31,0.03-0.47c0.02-0.16,0.11-0.35,0.26-0.58
		l3.16-5.1c0.31-0.43,0.59-0.75,0.85-0.96c0.25-0.21,0.54-0.32,0.85-0.32c0.51,0,0.97,0.16,1.4,0.47c0.9,0.71,2.09,1.34,3.57,1.91
		c1.48,0.56,3.07,1.04,4.77,1.43c1.7,0.39,3.38,0.69,5.06,0.91c1.68,0.21,3.16,0.32,4.45,0.32c4.02,0,7.71-0.51,11.06-1.55
		c3.36-1.03,6.24-2.48,8.66-4.36c2.42-1.87,4.31-4.13,5.68-6.76s2.05-5.57,2.05-8.81L940.9,154.6z M941.07,127.56
		c0-3.67-0.7-7.17-2.11-10.51c-1.4-3.33-3.31-6.25-5.73-8.75c-2.42-2.5-5.25-4.49-8.51-5.97c-3.26-1.48-6.72-2.22-10.38-2.22
		c-3.66,0-7.11,0.74-10.32,2.22c-3.21,1.49-6.02,3.48-8.42,5.97c-2.4,2.5-4.29,5.42-5.67,8.75c-1.38,3.34-2.08,6.84-2.08,10.51
		c0,3.63,0.69,7.12,2.08,10.48c1.38,3.36,3.27,6.31,5.67,8.87c2.4,2.56,5.21,4.6,8.42,6.12c3.22,1.52,6.66,2.28,10.32,2.28
		c3.66,0,7.12-0.76,10.38-2.28c3.25-1.52,6.09-3.56,8.51-6.12c2.42-2.56,4.33-5.51,5.73-8.87
		C940.37,134.68,941.07,131.19,941.07,127.56z"/>
	<path class="st0" d="M912.74,190.22c-4.64,0-8.92-0.68-12.72-2.02c-3.8-1.34-7.21-3.04-10.15-5.04c-0.39-0.19-0.77-0.48-1.06-0.82
		c-0.33-0.39-0.5-0.9-0.5-1.53c0-0.18,0.01-0.36,0.03-0.53c0.03-0.23,0.14-0.49,0.34-0.8l3.15-5.08c0.36-0.5,0.67-0.85,0.95-1.08
		c0.35-0.29,0.74-0.44,1.17-0.44c0.61,0,1.18,0.19,1.7,0.56c0.86,0.68,2.02,1.29,3.46,1.84c1.44,0.55,3.03,1.03,4.71,1.41
		c1.7,0.39,3.38,0.69,5.01,0.9c1.65,0.21,3.12,0.32,4.39,0.32c3.96,0,7.63-0.51,10.92-1.53c3.28-1.01,6.14-2.45,8.5-4.28
		c2.35-1.82,4.21-4.04,5.54-6.6c1.32-2.55,1.99-5.43,1.99-8.58l0.1-0.98c-3.17,3.11-6.86,5.62-10.98,7.49
		c-4.57,2.07-9.6,3.12-14.96,3.12c-3.51,0-6.95-0.47-10.23-1.39c-3.29-0.92-6.41-2.26-9.28-3.97c-2.87-1.71-5.52-3.77-7.88-6.13
		c-2.37-2.37-4.43-5.03-6.14-7.92c-1.71-2.9-3.05-6.03-3.97-9.31c-0.92-3.28-1.39-6.75-1.39-10.29c0-3.55,0.47-7.01,1.39-10.29
		c0.92-3.29,2.26-6.41,3.97-9.28c1.71-2.87,3.77-5.52,6.14-7.88c2.36-2.36,5.01-4.42,7.88-6.11c2.88-1.69,5.99-3.02,9.25-3.95
		c3.28-0.92,6.73-1.39,10.26-1.39c5.23,0,10.17,1.01,14.66,3c4.11,1.82,7.81,4.3,11,7.36v-5.94c0-1.98,1.09-3.08,3.08-3.08
		l6.62,0.06c1.76,0.23,2.66,1.28,2.66,3.02v59.77c0,4.48-0.51,8.57-1.51,12.17c-1,3.59-2.41,6.82-4.19,9.59
		c-1.78,2.76-3.93,5.17-6.4,7.14c-2.47,1.98-5.2,3.6-8.11,4.84c-2.91,1.24-6.05,2.17-9.33,2.75
		C919.54,189.92,916.15,190.22,912.74,190.22z M893.95,173.89c-0.19,0-0.36,0.07-0.53,0.21c-0.22,0.18-0.48,0.48-0.77,0.88
		l-3.14,5.06c-0.17,0.25-0.19,0.36-0.19,0.38c-0.02,0.14-0.03,0.28-0.03,0.41c0,0.38,0.09,0.67,0.26,0.87
		c0.21,0.25,0.48,0.45,0.81,0.61c2.93,1.99,6.27,3.64,9.98,4.95c3.69,1.3,7.86,1.96,12.39,1.96c3.35,0,6.68-0.29,9.89-0.87
		c3.21-0.57,6.27-1.48,9.11-2.69c2.83-1.2,5.48-2.78,7.87-4.7c2.39-1.91,4.47-4.23,6.19-6.9c1.72-2.68,3.09-5.82,4.06-9.31
		c0.98-3.51,1.48-7.51,1.48-11.9V93.08c0-1.24-0.54-1.86-1.73-2.02L943.06,91c-1.43,0-2.07,0.64-2.07,2.08v8.37l-0.86-0.88
		c-3.3-3.37-7.18-6.06-11.55-8s-9.17-2.92-14.26-2.92c-3.44,0-6.8,0.46-9.99,1.36c-3.18,0.9-6.21,2.19-9.01,3.84
		c-2.8,1.65-5.39,3.65-7.68,5.95c-2.3,2.3-4.32,4.89-5.98,7.69c-1.67,2.79-2.97,5.84-3.87,9.04c-0.9,3.19-1.36,6.57-1.36,10.02
		c0,3.46,0.46,6.83,1.36,10.02c0.9,3.2,2.2,6.25,3.87,9.07c1.66,2.81,3.68,5.41,5.98,7.72c2.3,2.3,4.89,4.32,7.69,5.98
		c2.8,1.67,5.84,2.97,9.04,3.87c3.19,0.9,6.55,1.36,9.96,1.36c5.22,0,10.11-1.02,14.55-3.03c4.45-2.02,8.37-4.8,11.67-8.29
		l1.01-1.07l-0.38,3.8c0,3.26-0.71,6.3-2.1,8.99c-1.4,2.69-3.35,5.02-5.82,6.93c-2.45,1.9-5.42,3.4-8.82,4.44
		c-3.38,1.04-7.15,1.57-11.21,1.57c-1.31,0-2.83-0.11-4.51-0.32c-1.66-0.21-3.38-0.52-5.11-0.92c-1.72-0.4-3.35-0.89-4.84-1.45
		c-1.53-0.58-2.77-1.25-3.7-1.98C894.72,174.01,894.35,173.89,893.95,173.89z M914.35,155.8c-3.73,0-7.27-0.78-10.54-2.33
		c-3.26-1.54-6.14-3.64-8.57-6.23c-2.43-2.59-4.37-5.63-5.77-9.02c-1.4-3.4-2.11-6.99-2.11-10.67c0-3.72,0.71-7.32,2.11-10.7
		c1.4-3.37,3.34-6.37,5.77-8.9c2.42-2.53,5.31-4.57,8.57-6.08c3.27-1.5,6.81-2.27,10.53-2.27c3.72,0,7.28,0.76,10.59,2.27
		c3.3,1.51,6.21,3.55,8.66,6.08c2.45,2.54,4.41,5.53,5.83,8.9c1.42,3.38,2.14,6.99,2.14,10.71c0,3.68-0.72,7.27-2.14,10.67
		c-1.42,3.39-3.38,6.42-5.83,9.02c-2.45,2.59-5.36,4.69-8.66,6.23C921.64,155.02,918.08,155.8,914.35,155.8z M914.35,100.6
		c-3.58,0-6.98,0.73-10.11,2.18c-3.15,1.46-5.93,3.43-8.27,5.86c-2.34,2.44-4.22,5.34-5.57,8.59c-1.35,3.26-2.04,6.73-2.04,10.32
		c0,3.54,0.69,7.01,2.04,10.29c1.35,3.28,3.23,6.21,5.57,8.72c2.34,2.5,5.12,4.52,8.27,6.01c3.13,1.48,6.53,2.23,10.11,2.23
		c3.58,0,7-0.75,10.17-2.24c3.18-1.49,5.99-3.51,8.36-6.01c2.37-2.51,4.26-5.44,5.63-8.72c1.37-3.28,2.07-6.74,2.07-10.28
		c0-3.59-0.7-7.06-2.07-10.32c-1.37-3.26-3.26-6.15-5.63-8.6c-2.36-2.44-5.17-4.41-8.36-5.86
		C921.35,101.33,917.93,100.6,914.35,100.6z"/>
</g>
<g>
	<path class="st0" d="M979.65,77.04c0,1.72-0.86,2.58-2.58,2.58h-6.03c-1.84,0-2.75-0.86-2.75-2.58v-6.03
		c0-0.78,0.25-1.41,0.76-1.88c0.51-0.47,1.11-0.7,1.82-0.7h6.09c0.82,0,1.47,0.24,1.96,0.73c0.49,0.49,0.73,1.1,0.73,1.84V77.04z
		 M979.65,162.33c0,1.72-0.86,2.58-2.58,2.58h-6.03c-1.84,0-2.75-0.86-2.75-2.58V93.14c0-0.78,0.25-1.41,0.76-1.88
		c0.51-0.47,1.11-0.7,1.82-0.7h6.09c0.82,0,1.47,0.26,1.96,0.76c0.49,0.51,0.73,1.11,0.73,1.81V162.33z"/>
	<path class="st0" d="M977.08,165.4h-6.03c-2.1,0-3.25-1.09-3.25-3.08V93.14c0-0.92,0.31-1.68,0.92-2.24
		c0.6-0.55,1.32-0.83,2.16-0.83h6.09c0.95,0,1.74,0.31,2.32,0.91c0.58,0.6,0.87,1.33,0.87,2.16v69.19
		C980.15,164.31,979.06,165.4,977.08,165.4z M970.87,91.06c-0.58,0-1.06,0.19-1.48,0.57c-0.4,0.37-0.6,0.87-0.6,1.51v69.19
		c0,1.44,0.69,2.08,2.25,2.08h6.03c1.44,0,2.08-0.64,2.08-2.08V93.14c0-0.57-0.19-1.05-0.59-1.47c-0.39-0.41-0.92-0.61-1.6-0.61
		H970.87z M977.08,80.11h-6.03c-2.1,0-3.25-1.09-3.25-3.08v-6.03c0-0.92,0.31-1.68,0.92-2.24c0.6-0.55,1.32-0.83,2.16-0.83h6.09
		c0.95,0,1.73,0.3,2.32,0.88c0.58,0.59,0.88,1.33,0.88,2.2v6.03C980.15,79.02,979.06,80.11,977.08,80.11z M970.87,68.93
		c-0.58,0-1.06,0.19-1.48,0.57c-0.4,0.37-0.6,0.87-0.6,1.51v6.03c0,1.44,0.69,2.08,2.25,2.08h6.03c1.44,0,2.08-0.64,2.08-2.08v-6.03
		c0-0.61-0.19-1.09-0.59-1.49c-0.39-0.39-0.92-0.58-1.61-0.58H970.87z"/>
</g>
<g>
	<path class="st0" d="M1051.48,147.87c0.35-0.31,0.73-0.6,1.14-0.88c0.41-0.27,0.83-0.41,1.26-0.41c0.59,0,1.15,0.35,1.7,1.05
		c0.78,1.06,1.41,1.91,1.9,2.58c0.49,0.66,0.89,1.19,1.2,1.58c0.31,0.43,0.55,0.74,0.7,0.93c0.19,0.24,0.35,0.48,0.47,0.73
		c0.12,0.26,0.18,0.54,0.18,0.85c0,0.43-0.17,0.89-0.5,1.38c-0.33,0.49-0.91,1.06-1.73,1.73c-1.68,1.33-3.43,2.53-5.24,3.6
		c-1.81,1.07-3.72,2-5.71,2.78c-1.99,0.78-4.09,1.39-6.29,1.82c-2.21,0.43-4.54,0.64-7,0.64c-3.47,0-6.83-0.46-10.07-1.38
		c-3.24-0.92-6.29-2.23-9.16-3.93c-2.87-1.7-5.48-3.72-7.85-6.06c-2.36-2.34-4.4-4.94-6.12-7.79c-1.72-2.85-3.04-5.9-3.98-9.16
		c-0.94-3.26-1.4-6.64-1.4-10.16s0.44-6.91,1.32-10.19c0.88-3.28,2.13-6.34,3.75-9.19c1.62-2.85,3.58-5.45,5.88-7.79
		c2.3-2.34,4.89-4.35,7.76-6.03s5.97-2.98,9.31-3.89c3.34-0.91,6.86-1.38,10.56-1.38c2.93,0,5.83,0.34,8.72,1
		c2.89,0.66,5.66,1.63,8.31,2.9c2.65,1.27,5.14,2.84,7.46,4.71c2.32,1.88,4.4,4.02,6.23,6.44c2.5,3.36,4.35,7.18,5.56,11.48
		c1.21,4.29,1.78,9.23,1.7,14.81c0,1.83-0.86,2.75-2.58,2.75h-61.7c0.66,3.12,1.82,6.01,3.48,8.66c1.66,2.65,3.65,4.97,5.97,6.94
		c2.32,1.97,4.91,3.51,7.76,4.62c2.85,1.11,5.79,1.67,8.84,1.67c2.15,0,4.09-0.21,5.82-0.61c1.74-0.41,3.32-0.96,4.74-1.64
		c1.42-0.68,2.74-1.46,3.95-2.34c1.21-0.88,2.38-1.78,3.51-2.72L1051.48,147.87z M1019.4,104.55c-2.97,1.99-5.52,4.5-7.67,7.52
		c-2.15,3.03-3.61,6.35-4.39,9.98h52.92c-0.43-3.24-1.43-6.19-3.01-8.84c-1.58-2.65-3.56-4.92-5.94-6.79
		c-2.38-1.88-5.06-3.33-8.05-4.36c-2.99-1.03-6.08-1.55-9.28-1.55c-2.54,0-5.05,0.33-7.52,0.99
		C1023.97,102.17,1021.62,103.19,1019.4,104.55z"/>
	<path class="st0" d="M1033.56,166.75c-3.5,0-6.93-0.47-10.2-1.39c-3.27-0.93-6.39-2.27-9.28-3.98c-2.89-1.71-5.56-3.77-7.94-6.13
		c-2.38-2.36-4.46-5.01-6.19-7.88c-1.73-2.87-3.09-6-4.03-9.28c-0.94-3.29-1.42-6.75-1.42-10.29c0-3.54,0.45-7.01,1.33-10.32
		c0.89-3.31,2.17-6.44,3.8-9.31c1.63-2.88,3.64-5.53,5.96-7.89c2.33-2.37,4.97-4.42,7.86-6.11c2.9-1.69,6.07-3.02,9.43-3.95
		c6.04-1.65,12.91-1.9,19.53-0.38c2.92,0.67,5.75,1.66,8.42,2.93c2.68,1.28,5.22,2.89,7.56,4.77c2.35,1.9,4.47,4.09,6.32,6.53
		c2.53,3.4,4.43,7.31,5.65,11.64c1.22,4.33,1.79,9.36,1.72,14.95c0,2.09-1.09,3.25-3.08,3.25h-61.07c0.67,2.83,1.77,5.48,3.28,7.9
		c1.62,2.6,3.6,4.89,5.87,6.82c2.27,1.93,4.84,3.46,7.62,4.54c2.78,1.08,5.69,1.63,8.66,1.63c2.09,0,4.02-0.2,5.71-0.6
		c1.7-0.4,3.26-0.94,4.64-1.6c1.39-0.67,2.69-1.44,3.87-2.3c1.19-0.86,2.36-1.77,3.49-2.7l0.11-0.11c0.37-0.33,0.77-0.63,1.19-0.92
		c1.2-0.79,2.53-0.65,3.63,0.75l1.91,2.59c0.48,0.66,0.88,1.18,1.19,1.57c0.32,0.43,0.55,0.74,0.7,0.93
		c0.22,0.26,0.4,0.54,0.53,0.83c0.15,0.32,0.22,0.68,0.22,1.06c0,0.53-0.2,1.09-0.58,1.66c-0.36,0.53-0.96,1.13-1.83,1.83
		c-1.69,1.34-3.47,2.56-5.3,3.64c-1.82,1.08-3.77,2.03-5.78,2.81c-2.01,0.79-4.16,1.41-6.38,1.84
		C1038.42,166.53,1036.03,166.75,1033.56,166.75z M1033.56,89.83c-3.64,0-7.15,0.46-10.43,1.36c-3.27,0.9-6.36,2.19-9.19,3.84
		c-2.81,1.64-5.39,3.64-7.65,5.95c-2.26,2.3-4.21,4.88-5.81,7.68c-1.59,2.79-2.83,5.84-3.7,9.07c-0.86,3.22-1.3,6.61-1.3,10.06
		c0,3.45,0.47,6.82,1.38,10.02c0.92,3.2,2.24,6.24,3.93,9.04c1.69,2.8,3.72,5.39,6.04,7.69c2.32,2.3,4.93,4.31,7.75,5.98
		c2.81,1.67,5.86,2.97,9.04,3.88c3.19,0.9,6.53,1.36,9.93,1.36c2.4,0,4.72-0.21,6.9-0.63c2.16-0.42,4.25-1.03,6.2-1.79
		c1.96-0.77,3.86-1.69,5.63-2.74c1.79-1.06,3.53-2.26,5.18-3.56c0.77-0.63,1.32-1.17,1.62-1.61c0.27-0.4,0.41-0.77,0.41-1.09
		c0-0.24-0.04-0.45-0.13-0.64c-0.1-0.21-0.23-0.42-0.4-0.62c-0.16-0.2-0.4-0.52-0.72-0.96c-0.3-0.38-0.71-0.91-1.2-1.58l-1.9-2.58
		c-0.78-1-1.53-1.02-2.28-0.52c-0.38,0.25-0.74,0.53-1.08,0.82l-0.11,0.11c-1.17,0.98-2.36,1.9-3.57,2.77
		c-1.23,0.89-2.58,1.7-4.03,2.39c-1.45,0.69-3.08,1.25-4.84,1.67c-1.77,0.42-3.77,0.63-5.94,0.63c-3.09,0-6.13-0.57-9.02-1.7
		c-2.88-1.12-5.54-2.71-7.9-4.71c-2.35-1.99-4.39-4.37-6.07-7.05c-1.68-2.69-2.88-5.66-3.55-8.82l-0.13-0.6h62.32
		c1.44,0,2.08-0.69,2.08-2.25c0.08-5.51-0.49-10.44-1.68-14.67c-1.19-4.21-3.03-8.02-5.48-11.31c-1.79-2.37-3.86-4.5-6.15-6.35
		c-2.28-1.84-4.76-3.4-7.37-4.65c-2.6-1.24-5.36-2.21-8.21-2.86C1039.33,90.16,1036.43,89.83,1033.56,89.83z M1060.83,122.55h-54.11
		l0.13-0.6c0.79-3.68,2.29-7.1,4.47-10.17c2.17-3.06,4.79-5.63,7.8-7.65l0.02-0.01c2.25-1.38,4.67-2.42,7.19-3.1
		c5.67-1.52,11.66-1.31,17.09,0.57c3.03,1.05,5.79,2.55,8.2,4.44c2.41,1.9,4.45,4.23,6.06,6.92c1.61,2.7,2.64,5.74,3.08,9.03
		L1060.83,122.55z M1007.97,121.55h51.72c-0.46-2.94-1.42-5.66-2.87-8.09c-1.54-2.59-3.5-4.83-5.82-6.65
		c-2.32-1.83-4.98-3.27-7.9-4.29c-5.25-1.81-11.03-2.01-16.51-0.54c-2.42,0.65-4.74,1.65-6.91,2.98c-2.9,1.95-5.43,4.43-7.53,7.39
		C1010.16,115.15,1008.76,118.24,1007.97,121.55z"/>
</g>
<g>
</g>
<g>
</g>
<g>
	<g>
		<g>
			<path class="st0" d="M177.29,33.46c-1.12-0.92-2.42-1.39-3.88-1.39h-12.47c-1.62,0-2.91,0.47-3.87,1.39
				c-0.97,0.92-1.45,2.03-1.45,3.31v81.22H89.84c-1.62,0-2.91,0.57-3.89,1.7c-0.95,1.13-1.44,2.38-1.44,3.74v11.46
				c0,1.5,0.52,2.72,1.57,3.63c0.58,0.5,1.21,0.86,1.92,1.08h67.6v73.09c0,2.52,1.17,4.01,3.47,4.5c0.09,0.02,0.19,0.04,0.29,0.06
				c0.17,0.03,0.34,0.06,0.53,0.08c0.32,0.03,0.65,0.06,0.99,0.06c0.02,0,0.03,0,0.05,0h0.02h12.22h0.02c0.09,0,0.17-0.01,0.25-0.01
				c0.15,0,0.31,0,0.45-0.01c0.01,0,0.02,0,0.03,0c3.39-0.19,5.08-1.75,5.08-4.67v-0.29c0,0,0,0,0,0v-94.41h0V36.77
				C179,35.49,178.42,34.38,177.29,33.46z"/>
		</g>
	</g>
	<g>
		<path class="st0" d="M52.55,117.99V36.77c0-1.28-0.58-2.39-1.71-3.31c-1.12-0.92-2.42-1.39-3.88-1.39H34.5
			c-1.62,0-2.91,0.47-3.87,1.39c-0.97,0.92-1.45,2.03-1.45,3.31v81.22l-0.04,0c0.01,0.11,0.02,0.22,0.02,0.33v17.84
			c0,0.08-0.01,0.15-0.02,0.23c0.01,0.08,0.01,0.16,0.01,0.24v2.96h0.03v73.09c0,2.52,1.17,4.01,3.47,4.5
			c0.09,0.02,0.19,0.04,0.29,0.06c0.17,0.03,0.34,0.06,0.53,0.08c0.32,0.03,0.65,0.06,0.99,0.06c0.02,0,0.03,0,0.05,0h12.25
			c0.09,0,0.17-0.01,0.25-0.01c0.15,0,0.31,0,0.45-0.01c0.01,0,0.02,0,0.03,0c3.39-0.19,5.08-1.75,5.08-4.67v-0.29c0,0,0,0,0,0
			L52.55,117.99L52.55,117.99z"/>
	</g>
</g>
</svg>
