<svg xmlns="http://www.w3.org/2000/svg" viewBox="0 0 496.06 72.99"><defs><style>.cls-1{fill:#fff;}</style></defs><title>Fichier 3</title><g id="Calque_2" data-name="Calque 2"><g id="Calque_1-2" data-name="Calque 1"><path class="cls-1" d="M414.89,12.1a18.5,18.5,0,0,1,8.17-2.3l.67,0V2.12H423a26.6,26.6,0,0,0-5.11.59,25.75,25.75,0,0,0-16.46,11.61,31.65,31.65,0,0,0-5.16,17.54A28.49,28.49,0,0,0,400.45,47a26.88,26.88,0,0,0,11.27,11,23.63,23.63,0,0,0,10.77,2.77H423l.69,0V53.1l-.68,0a19.13,19.13,0,0,1-13.65-6.6,19.94,19.94,0,0,1-5.78-14.6,22.9,22.9,0,0,1,3-11.66,21.72,21.72,0,0,1,8.28-8.11"/><polygon class="cls-1" points="370.9 0 370.9 60.71 378.23 60.71 378.23 30.31 387.48 48.65 387.48 60.71 394.82 60.71 394.82 3.04 387.48 3.04 387.48 31.99 370.9 0"/><path class="cls-1" d="M317.73,11.31A8.42,8.42,0,0,1,322,13.22a11.23,11.23,0,0,1,4.22,9.15,12,12,0,0,1-.92,4.6,10.51,10.51,0,0,1-7.56,6.48ZM327,37.45a16,16,0,0,0,2.27-2.31,20.17,20.17,0,0,0,4.43-13A20.08,20.08,0,0,0,330.51,11a17.39,17.39,0,0,0-8.59-7,25,25,0,0,0-8.22-1h-3.3V60.71h7.33V35.65l12.49,25.06h8.48Z"/><polygon class="cls-1" points="307.32 10.91 307.32 3.04 289.26 3.04 289.26 60.71 296.59 60.71 296.59 30.86 304.24 30.86 304.24 22.99 296.59 22.99 296.59 10.91 307.32 10.91"/><path class="cls-1" d="M254.67,11.31a8.46,8.46,0,0,1,4.26,1.91,11.25,11.25,0,0,1,4.21,9.15,12,12,0,0,1-.91,4.6,10.49,10.49,0,0,1-7.56,6.48ZM264,37.45a16,16,0,0,0,2.28-2.31,20.2,20.2,0,0,0,4.42-13A20.15,20.15,0,0,0,267.45,11a17.42,17.42,0,0,0-8.6-7,25,25,0,0,0-8.22-1h-3.29V60.71h7.33V35.64l12.48,25.07h8.49Z"/><path class="cls-1" d="M236.19,3V46.81a11.46,11.46,0,0,1-.64,4.56,4.06,4.06,0,0,1-4,2.37,4.43,4.43,0,0,1-2.37-.68c-1.48-.88-2.23-3-2.23-6.25V3h-7.34V46.65c0,4.36.8,7.76,2.38,10.12a10.94,10.94,0,0,0,9.56,5A11.41,11.41,0,0,0,237,60.46c4.31-2.26,6.5-6.91,6.5-13.81V3Z"/><polygon class="cls-1" points="216.12 10.91 216.12 3.04 198.06 3.04 198.06 60.71 216.12 60.71 216.12 52.84 205.39 52.84 205.39 30.86 213.03 30.86 213.03 22.99 205.39 22.99 205.39 10.91 216.12 10.91"/><polygon class="cls-1" points="99.4 3.04 99.4 22.99 90.19 22.99 90.19 3.04 82.85 3.04 82.85 60.71 90.19 60.71 90.19 30.86 99.4 30.86 99.4 60.71 106.74 60.71 106.74 3.04 99.4 3.04"/><path class="cls-1" d="M70.12,12.1a18.51,18.51,0,0,1,8.17-2.31l.67,0V2.12h-.72a26.31,26.31,0,0,0-5.1.59,25.74,25.74,0,0,0-16.47,11.6,31.64,31.64,0,0,0-5.16,17.53,32.09,32.09,0,0,0,4.17,16A26.85,26.85,0,0,0,67,58.82a25.69,25.69,0,0,0,11.28,2.79l.72,0V54l-.68,0a19.13,19.13,0,0,1-13.65-6.6,22.13,22.13,0,0,1-5.78-15.5,22.77,22.77,0,0,1,3-11.64,21.58,21.58,0,0,1,8.28-8.11"/><polygon class="cls-1" points="39.01 10.91 39.01 3.04 20.96 3.04 20.96 60.71 39.01 60.71 39.01 52.84 28.29 52.84 28.29 30.86 35.94 30.86 35.94 22.99 28.29 22.99 28.29 10.91 39.01 10.91"/><polygon class="cls-1" points="0 3.04 0 60.7 18.06 60.7 18.06 52.84 7.34 52.84 7.34 3.04 0 3.04"/><path class="cls-1" d="M439.81,24.5l2.95,14.41H437ZM422.09,60.71h7.51l5.28-13.93H445l5.39,13.93h7.68L439.9.38Z"/><path class="cls-1" d="M352.14,24.5l2.95,14.41h-5.75ZM334.42,60.71h7.51l5.29-13.93h10.1l5.39,13.93h7.68L352.23.38Z"/><path class="cls-1" d="M124.45,24.5l3,14.41h-5.75ZM106.73,60.71h7.51l5.28-13.93h10.11L135,60.71h7.67L124.54.38Z"/><polygon class="cls-1" points="406.97 72.98 412.98 72.98 418.1 64.25 410.9 61.13 406.97 72.98"/><path class="cls-1" d="M494.11,31.71c-2.37-5.56-7-9.5-13.65-11.7a23.38,23.38,0,0,1-5-2,4.06,4.06,0,0,1-1.79-3.51A4.43,4.43,0,0,1,475.11,11a5.22,5.22,0,0,1,3.41-1.26c.27,0,.58,0,.94,0a17.32,17.32,0,0,1,8.44,2.57l1.05.6V4.39l-.39-.19a20.48,20.48,0,0,0-9.76-2.33h-.35a11.48,11.48,0,0,0-8.52,3.55,12.51,12.51,0,0,0-3.57,9.11,11.81,11.81,0,0,0,4.76,9.82,18.84,18.84,0,0,0,5.51,2.51c2.32.76,3.68,1.22,4.05,1.35a11.6,11.6,0,0,1,5.58,4.32A14.53,14.53,0,0,1,488.88,41a12.6,12.6,0,0,1-2.59,8.14c-3.45,4.26-8.18,4.81-11.91,4.81h-.89c-4.22,0-8.57-.24-11.37-3.13l-.56-.59h-.12l-.25-.24L460,48.88l0,8.36a1.07,1.07,0,0,0-.29.67,1.38,1.38,0,0,0,.71,1.12c4.32,2.43,11.7,2.62,13.86,2.62,5.75,0,12.37-.95,17.78-8a20.36,20.36,0,0,0,4-12.68,23.39,23.39,0,0,0-1.95-9.22"/><path class="cls-1" d="M193.32,31.72c-2.38-5.56-7-9.5-13.65-11.7a23.72,23.72,0,0,1-5-2,4,4,0,0,1-1.79-3.51A4.43,4.43,0,0,1,174.32,11a5.22,5.22,0,0,1,3.4-1.26c.28,0,.59,0,.94,0a17.3,17.3,0,0,1,8.45,2.56l1,.6V4.4l-.39-.19A20.53,20.53,0,0,0,178,1.88h-.35a11.51,11.51,0,0,0-8.51,3.55,12.52,12.52,0,0,0-3.58,9.11,11.81,11.81,0,0,0,4.76,9.82,19.05,19.05,0,0,0,5.52,2.51c2.32.76,3.67,1.22,4,1.35a11.58,11.58,0,0,1,5.57,4.32A14.53,14.53,0,0,1,188.08,41c0,3.63-.73,6.4-2.25,8.47A11,11,0,0,1,176.5,54a11.37,11.37,0,0,1-7.91-3.16A17.87,17.87,0,0,1,165.25,46l-1.32-2.5V56.85l.27.21c.76.59,1.51,1.14,2.22,1.63a16.91,16.91,0,0,0,9.71,3.13c6.68,0,11.91-2.66,15.55-7.91a22.4,22.4,0,0,0,3.59-13,23.57,23.57,0,0,0-2-9.22"/><path class="cls-1" d="M166.32,31.72c-2.38-5.56-7-9.5-13.66-11.7a23.48,23.48,0,0,1-5-2,4,4,0,0,1-1.79-3.51A4.43,4.43,0,0,1,147.32,11a5.22,5.22,0,0,1,3.4-1.26c.28,0,.59,0,.94,0a17.3,17.3,0,0,1,8.45,2.56l1,.6V4.4l-.39-.19A20.53,20.53,0,0,0,151,1.88h-.35a11.5,11.5,0,0,0-8.51,3.55,12.48,12.48,0,0,0-3.58,9.11,11.81,11.81,0,0,0,4.76,9.82,19.05,19.05,0,0,0,5.52,2.51l4,1.35a11.58,11.58,0,0,1,5.57,4.32A14.56,14.56,0,0,1,161.08,41c0,3.63-.74,6.4-2.25,8.47A11,11,0,0,1,149.5,54a11.37,11.37,0,0,1-7.91-3.16A17.73,17.73,0,0,1,138.25,46l-1.32-2.51V56.85l.27.21c.76.59,1.51,1.14,2.22,1.63a17,17,0,0,0,9.71,3.13c6.68,0,11.91-2.66,15.55-7.91a22.4,22.4,0,0,0,3.59-13,23.57,23.57,0,0,0-2-9.22"/><rect class="cls-1" x="456.42" y="3.03" width="7.34" height="57.68"/></g></g></svg>