<?xml version="1.0" encoding="utf-8"?>
<!-- Generator: Adobe Illustrator 23.0.3, SVG Export Plug-In . SVG Version: 6.00 Build 0)  -->
<svg version="1.1" id="Calque_1" xmlns="http://www.w3.org/2000/svg" xmlns:xlink="http://www.w3.org/1999/xlink" x="0px" y="0px"
	 viewBox="0 0 589.02 157.96" style="enable-background:new 0 0 589.02 157.96;" xml:space="preserve">
<style type="text/css">
	.st0{fill:#FFFFFF;}
</style>
<g>
	<path class="st0" d="M159.26,114.21h0.15c2.87-4.02,6.83-6.55,11.72-6.55c4.66,0,8.07,2.53,9.93,7.07
		c3.1-4.54,7.45-7.07,12.03-7.07c7.76,0,12.1,4.17,12.1,13.69c0,5.06-0.31,8.63-0.31,12.5c0,3.12,0.23,7,0.39,10.79
		c-1.32-0.22-3.57-0.37-5.82-0.37s-4.5,0.15-5.82,0.37c0.7-5.36,0.85-12.5,0.85-21.36c0-6.18-2.33-9.08-6.36-9.08
		c-5.04,0-6.13,4.99-6.13,8.56v5.36c0,6.03,0.16,11.31,0.62,16.52c-1.32-0.15-3.41-0.37-5.82-0.37c-2.41,0-4.42,0.22-5.82,0.37
		c0.46-5.21,0.62-10.49,0.62-16.52v-4.54c0-5.95-1.32-9.38-5.43-9.38c-4.66,0-6.75,4.09-6.75,10.94v2.98
		c0,6.03,0.16,11.31,0.62,16.52c-1.32-0.15-3.41-0.37-5.82-0.37s-4.42,0.22-5.82,0.37c0.46-5.21,0.62-10.49,0.62-16.52v-2.98
		c0-6.03-0.16-11.31-0.62-16.52c1.86,0.15,3.65,0.37,5.51,0.37c1.86,0,3.65-0.22,5.67-0.37L159.26,114.21z"/>
	<path class="st0" d="M231.35,125.3c-4.42,2.38-10.24,2.01-10.24,9.53c0,3.65,1.71,5.66,4.42,5.66c3.41,0,5.74-2.53,5.74-7.37
		C231.27,128.8,231.35,127.01,231.35,125.3 M212.88,112.87c4.19-3.35,9.62-5.21,14.51-5.21c8.22,0,14.2,3.35,14.2,12.13
		c0,6.33-0.23,11.54-0.23,16.89c0,4.69,1.4,5.13,4.58,5.13v1.79c-2.95,1.49-4.73,2.01-7.14,2.01c-3.8,0-6.13-2.08-7.37-5.43
		c-2.41,3.13-5.35,5.43-10.09,5.43c-7.84,0-11.1-4.99-11.1-9.75c0-6.47,4.5-9.23,11.49-10.87c8.69-2.01,9.47-2.6,9.47-5.28
		c0-3.57-2.79-6.47-7.45-6.47c-3.57,0-7.76,2.01-9.31,4.09h-0.54L212.88,112.87z"/>
	<path class="st0" d="M272.63,114.21h0.15c2.87-4.02,6.83-6.55,11.72-6.55c4.66,0,8.07,2.53,9.93,7.07
		c3.1-4.54,7.45-7.07,12.03-7.07c7.76,0,12.1,4.17,12.1,13.69c0,5.06-0.31,8.63-0.31,12.5c0,3.12,0.23,7,0.39,10.79
		c-1.32-0.22-3.57-0.37-5.82-0.37c-2.25,0-4.5,0.15-5.82,0.37c0.7-5.36,0.85-12.5,0.85-21.36c0-6.18-2.33-9.08-6.36-9.08
		c-5.04,0-6.13,4.99-6.13,8.56v5.36c0,6.03,0.15,11.31,0.62,16.52c-1.32-0.15-3.42-0.37-5.82-0.37c-2.41,0-4.42,0.22-5.82,0.37
		c0.47-5.21,0.62-10.49,0.62-16.52v-4.54c0-5.95-1.32-9.38-5.43-9.38c-4.65,0-6.75,4.09-6.75,10.94v2.98
		c0,6.03,0.16,11.31,0.62,16.52c-1.32-0.15-3.41-0.37-5.82-0.37c-2.41,0-4.42,0.22-5.82,0.37c0.47-5.21,0.62-10.49,0.62-16.52v-2.98
		c0-6.03-0.15-11.31-0.62-16.52c1.86,0.15,3.65,0.37,5.51,0.37c1.86,0,3.65-0.22,5.67-0.37L272.63,114.21z"/>
	<path class="st0" d="M344.32,125.3c-4.42,2.38-10.24,2.01-10.24,9.53c0,3.65,1.71,5.66,4.42,5.66c3.42,0,5.74-2.53,5.74-7.37
		C344.25,128.8,344.32,127.01,344.32,125.3 M325.86,112.87c4.19-3.35,9.62-5.21,14.51-5.21c8.22,0,14.2,3.35,14.2,12.13
		c0,6.33-0.23,11.54-0.23,16.89c0,4.69,1.4,5.13,4.58,5.13v1.79c-2.95,1.49-4.73,2.01-7.14,2.01c-3.8,0-6.13-2.08-7.37-5.43
		c-2.41,3.13-5.35,5.43-10.09,5.43c-7.84,0-11.1-4.99-11.1-9.75c0-6.47,4.5-9.23,11.49-10.87c8.69-2.01,9.47-2.6,9.47-5.28
		c0-3.57-2.79-6.47-7.45-6.47c-3.57,0-7.76,2.01-9.31,4.09h-0.54L325.86,112.87z"/>
	<path class="st0" d="M364.58,125.15c0-6.03-0.15-11.31-0.62-16.52c1.4,0.15,3.41,0.37,5.82,0.37c2.41,0,4.5-0.22,5.82-0.37
		c-0.47,5.21-0.62,10.49-0.62,16.52v2.98c0,6.03,0.15,11.31,0.62,16.52c-1.32-0.15-3.42-0.37-5.82-0.37c-2.41,0-4.42,0.22-5.82,0.37
		c0.47-5.21,0.62-10.49,0.62-16.52V125.15z"/>
	<path class="st0" d="M385.91,135.27c1.24,3.13,3.73,6.1,9.16,6.1c3.57,0,5.67-2.16,5.67-4.24c0-6.77-17.85-4.54-17.85-17.49
		c0-8.41,7.14-11.98,13.58-11.98c4.27,0,7.45,1.19,10.94,3.5c-0.93,1.93-1.55,4.39-1.86,6.55h-2.17c-0.54-2.38-2.79-6.25-7.68-6.25
		c-3.1,0-5.51,1.71-5.51,4.32c0,7.22,18.31,4.09,18.31,17.26c0,8.56-7.29,12.58-14.97,12.58c-4.58,0-8.54-1.79-10.71-3.2
		c0.62-2.38,1.01-4.76,1.17-7.14H385.91z"/>
	<path class="st0" d="M432.55,111.01c-4.73,0-7.68,5.36-7.68,16.59c0,8.33,1.86,14.66,7.6,14.66c4.81,0,7.45-5.95,7.45-17.49
		C439.92,116.22,437.67,111.01,432.55,111.01 M432.39,107.66c11.95,0,19.01,7.07,19.01,18.23c0,12.13-7.84,19.72-19.01,19.72
		c-9.23,0-19.01-4.91-19.01-18.08C413.38,114.21,422.62,107.66,432.39,107.66"/>
	<path class="st0" d="M468.79,114.21h0.15c2.87-4.02,6.83-6.55,11.72-6.55c7.76,0,12.11,4.17,12.11,13.69
		c0,5.06-0.31,8.63-0.31,12.5c0,3.12,0.23,7,0.39,10.79c-1.32-0.22-3.57-0.37-5.82-0.37s-4.5,0.15-5.82,0.37
		c0.7-5.36,0.85-12.5,0.85-21.36c0-6.18-2.33-9.08-6.36-9.08c-4.66,0-6.75,4.09-6.75,10.94v2.98c0,6.03,0.16,11.31,0.62,16.52
		c-1.32-0.15-3.41-0.37-5.82-0.37c-2.4,0-4.42,0.22-5.82,0.37c0.47-5.21,0.62-10.49,0.62-16.52v-2.98c0-6.03-0.16-11.31-0.62-16.52
		c1.86,0.15,3.65,0.37,5.51,0.37c1.86,0,3.65-0.22,5.67-0.37L468.79,114.21z"/>
	<path class="st0" d="M109.07,90.17c-5.14,0-10.97,9.62-10.97,19.54c6.7-1.84,14.36-7.37,14.36-15.66
		C112.46,91.81,111.4,90.17,109.07,90.17 M91.4,142.57c3.2,0,5.92-0.61,9.32-3.07c-6.79-5.53-10.39-14.74-10.39-24.56v-1.74
		c-5.82,2.25-10.58,8.19-10.58,15.04C79.75,135.71,84.12,142.57,91.4,142.57 M149.73,129.57c-6.31,10.85-16.4,16.89-28.83,16.89
		c-6.89,0-13.98-1.74-19.41-6.34c-4.66,3.27-10.09,5.94-15.82,5.94c-7.38,0-14.07-4.81-14.07-13.1c0-11.15,10.19-17.4,18.93-20.77
		c1.07-10.44,9.32-23.84,21.16-23.84c4.66,0,7.77,2.35,7.77,6.24c0,9.82-14.56,13.2-21.35,16.07c0.39,8.7,3.3,18.32,8.74,23.95
		c10.87-10.54,16.5-23.54,25.91-23.54c3.59,0,5.53,2.46,5.53,5.12c0,2.56-1.55,4.91-4.56,4.91c-2.62,0-4.17-2.05-4.17-4.09
		c0-1.33,0.39-2.25,1.07-3.27c-0.19-0.1-0.58-0.21-0.97-0.21c-5.24,0-13.49,13.2-22.23,21.7c4.75,5.42,11.74,8.8,18.93,8.8
		c9.9,0,17.08-6.14,22.52-14.74L149.73,129.57z"/>
	<path class="st0" d="M375.44,97.05c0,3.21-2.61,5.82-5.82,5.82c-3.21,0-5.82-2.61-5.82-5.82c0-3.22,2.61-5.83,5.82-5.83
		C372.84,91.22,375.44,93.83,375.44,97.05"/>
	<path class="st0" d="M24.06,11.5c9.67,20.08,19.66,38.88,30.5,58.85c4.25-8.33,21.15-39.09,31.56-58.85h1.38
		c3.19,27.34,5.31,50.63,8.71,75.09c-1.7-0.32-3.3-0.53-5-0.53c-1.7,0-3.29,0.21-4.99,0.53c-1.49-19.12-2.98-36.85-5.21-55.11h-0.21
		c-9.67,17.84-19.45,35.35-27.84,54.58h-0.96c-8.29-17.73-18.07-36.1-27.31-54.58h-0.21c-2.02,17.62-4.99,43.04-5.1,55.11
		c-1.28-0.32-2.44-0.53-3.72-0.53c-1.27,0-2.44,0.21-3.72,0.53c3.72-23.61,7.97-52.44,10.31-75.09H24.06z"/>
	<path class="st0" d="M139.26,15.45c-16.58,0-29.33,10.57-29.33,34.29c0,23.71,12.75,34.29,29.33,34.29
		c16.68,0,29.44-10.57,29.44-34.29C168.69,26.02,155.94,15.45,139.26,15.45 M139.26,11.5c23.48,0,39.85,13.99,39.85,38.24
		s-16.37,38.24-39.85,38.24c-23.38,0-39.74-13.99-39.74-38.24S115.88,11.5,139.26,11.5"/>
	<path class="st0" d="M243.72,87.97c-16.15-19.12-35.49-39.63-53.67-59.06c-0.11,3.95-0.32,10.36-0.32,21.68
		c0,9.19,0.42,31.72,0.96,35.99c-1.17-0.32-2.45-0.53-3.72-0.53c-1.28,0-2.55,0.21-3.93,0.53c0.85-5.02,2.23-32.36,2.23-46.46
		c0-13.46,0-23.82-0.32-28.62h1.7c17.32,18.91,40.81,44.65,53.77,57.78c0-19.12,0-39.95-0.85-56.39c1.17,0.32,2.44,0.53,3.61,0.53
		c1.17,0,2.23-0.21,3.4-0.53c-0.64,6.3-1.7,27.45-1.7,35.78c0,10.9,0.21,34.5,0.32,39.31H243.72z"/>
	<path class="st0" d="M265.83,98.44c12.43,0,13.6-11.64,13.6-28.52V40.55c0-9.18-0.42-18.48-0.85-27.66
		c1.81,0.32,3.51,0.53,5.21,0.53c1.7,0,3.4-0.21,5.21-0.54c-0.43,9.19-0.85,18.48-0.85,27.66c0,12.82,0.32,27.77,0.32,38.02
		c0,12.71-8.72,22.86-21.79,22.86L265.83,98.44z"/>
	<path class="st0" d="M323.51,25.92l-11.39,27.13c3.65,0,7.63,0.21,11.28,0.21c3.86,0,7.83-0.11,11.7-0.21L323.51,25.92z
		 M326.96,11.5c10.23,24.78,25.9,63.66,31.44,75.09c-1.88-0.32-3.66-0.53-5.54-0.53c-1.88,0-3.66,0.21-5.54,0.53
		c-1.98-7.37-7-19.12-10.76-28.62c-4.49-0.11-9.09-0.21-13.68-0.21c-4.28,0-8.46,0.11-12.74,0.21c-4.39,11-8.36,21.89-10.13,28.62
		c-1.36-0.32-2.61-0.53-3.87-0.53c-1.25,0-2.5,0.21-3.86,0.53c11.17-24.99,22.04-49.88,32.69-75.09H326.96z"/>
	<path class="st0" d="M373.79,46.64c1.91,0.43,4.36,0.53,7.12,0.53c8.71,0,20.3-3.63,20.3-16.34c0-11.21-9.24-13.99-16.47-13.99
		c-4.89,0-8.08,0.32-10.31,0.53c-0.32,7.8-0.64,15.49-0.64,23.18V46.64z M365.07,40.55c0-9.19-0.42-18.48-0.85-27.66
		c4.04,0.32,8.08,0.53,12.12,0.53c4.04,0,8.08-0.53,12.11-0.53c12.01,0,22.1,4.17,22.1,16.88c0,13.78-13.71,19.33-21.78,20.4
		c5.21,6.52,22.95,29.48,29.12,36.42c-2.13-0.32-4.25-0.53-6.38-0.53c-2.02,0-4.14,0.21-6.16,0.53
		c-4.25-6.52-18.38-26.17-27.52-35.46h-4.04v7.8c0,9.19,0.42,18.48,0.85,27.66c-1.81-0.32-3.5-0.53-5.21-0.53
		c-1.7,0-3.4,0.21-5.21,0.53c0.43-9.18,0.85-18.48,0.85-27.66V40.55z"/>
	<path class="st0" d="M431.81,58.92c0,7.58,0.21,15.27,0.64,22.64c2.97,0.64,8.5,1.07,13.92,1.07c15.62,0,32.62-6.19,32.62-34.39
		c0-24.78-12.75-30.87-30.18-30.87c-6.27,0-12.01,0.53-16.36,1.07c-0.42,6.84-0.64,14.42-0.64,22.11V58.92z M423.09,40.55
		c0-9.19-0.42-18.48-0.85-27.66c5.31,0.32,10.73,0.53,16.05,0.53c5.31,0,10.73-0.53,16.04-0.53c24.87,0,35.07,13.35,35.07,35.35
		c0,28.52-21.89,38.34-38.68,38.34c-4.78,0-9.46-0.53-14.24-0.53c-4.78,0-9.46,0.21-14.24,0.53c0.43-9.18,0.85-18.48,0.85-27.66
		V40.55z"/>
	<path class="st0" d="M496,40.55c0-9.19-0.43-18.48-0.85-27.66c1.8,0.32,3.5,0.53,5.21,0.53c1.7,0,3.4-0.21,5.21-0.53
		c-0.42,9.18-0.85,18.48-0.85,27.66v18.37c0,9.19,0.43,18.48,0.85,27.66c-1.81-0.32-3.51-0.53-5.21-0.53c-1.7,0-3.4,0.21-5.21,0.53
		c0.42-9.18,0.85-18.48,0.85-27.66V40.55z"/>
	<path class="st0" d="M574.21,87.97c-16.15-19.12-35.5-39.63-53.67-59.06c-0.11,3.95-0.32,10.36-0.32,21.68
		c0,9.19,0.42,31.72,0.96,35.99c-1.17-0.32-2.45-0.53-3.72-0.53c-1.27,0-2.55,0.21-3.93,0.53c0.85-5.02,2.23-32.36,2.23-46.46
		c0-13.46,0-23.82-0.32-28.62h1.7c17.32,18.91,40.8,44.65,53.77,57.78c0-19.12,0-39.95-0.85-56.39c1.17,0.32,2.44,0.53,3.61,0.53
		c1.17,0,2.23-0.21,3.4-0.53c-0.64,6.3-1.7,27.45-1.7,35.78c0,10.9,0.21,34.5,0.32,39.31H574.21z"/>
</g>
</svg>
