<?xml version="1.0" encoding="utf-8"?>
<!-- Generator: Adobe Illustrator 26.0.3, SVG Export Plug-In . SVG Version: 6.00 Build 0)  -->
<svg version="1.1" id="Calque_1" xmlns="http://www.w3.org/2000/svg" xmlns:xlink="http://www.w3.org/1999/xlink" x="0px" y="0px"
	 viewBox="0 0 270 72" style="enable-background:new 0 0 270 72;" xml:space="preserve">
<style type="text/css">
	.st0{fill:#FFFFFF;}
</style>
<g id="Groupe_98" transform="translate(0 32)">
	<g>
		<g id="Groupe_97" transform="translate(0 -32)">
			<g id="Groupe_96" transform="translate(0 0)">
				<path id="Tracé_81" class="st0" d="M270,66.86l-8.66-1.15L270,64.5v-2.75l-14.34-1.71v2.64l8.3,0.86l-8.29,1.13v2.09l8.34,1.08
					l-8.36,0.85v2.67L270,69.64V66.86z M255.66,57.7H270v-6.44h-2.14v3.3h-4.29v-2.48h-2.2v2.48h-3.56V51.3h-2.16v6.4H255.66z
					 M255.66,48.95H270V42.5h-2.14v3.29h-4.29v-2.48h-2.2v2.48h-3.56v-3.26h-2.16v6.42H255.66z M255.66,40.2H270v-3.14h-5.77
					l-0.57-0.34l6.34-2.06v-3.2l-7.86,2.76l-6.48-2.64v3.07l5.86,2.4h-5.86L255.66,40.2L255.66,40.2z M231.91,71.48h15.71v-4h-10.09
					V52.8h8.1v-3.96h-8.1V35.6h9.99v-4.15h-15.6L231.91,71.48z M244.11,11h2.1l-4.95-10.79h-1.95L234.36,11h2.02l1.16-2.59h5.43
					L244.11,11z M242.24,6.8h-4l2-4.6L242.24,6.8z M222.82,11h9.26V9.35h-7.33V0.22h-1.92L222.82,11z M223.5,31.45l-6.06,29.52
					l-6.36-29.52h-5.27l9,40.05h4.93l8.9-40.05L223.5,31.45z M204.03,11h9.57V9.35h-7.65V6.38h6.62V4.73h-6.62V1.86h7.65V0.22h-9.57
					V11z M196.77,71.48h5.52V31.44h-5.52V71.48z M200.58,5.61c0.18-2.81-1.95-5.23-4.76-5.41c-0.27-0.02-0.54-0.01-0.81,0.01h-4.92
					V11h4.92c2.8,0.27,5.29-1.78,5.56-4.58C200.6,6.15,200.6,5.88,200.58,5.61 M198.63,5.61c0.16,1.91-1.27,3.59-3.18,3.75
					c-0.22,0.02-0.43,0.02-0.65-0.01H192V1.86h2.8c1.91-0.2,3.62,1.19,3.82,3.1C198.65,5.18,198.65,5.39,198.63,5.61 M171.29,11
					h9.57V9.36h-7.65V6.39h6.62V4.74h-6.62V1.86h7.65V0.22h-9.56L171.29,11z M171.34,36.99c-0.64-1.79-1.85-3.32-3.45-4.35
					c-1.96-1.12-4.21-1.65-6.46-1.53c-2.26-0.11-4.5,0.41-6.48,1.51c-1.61,1.02-2.84,2.55-3.48,4.35c-0.76,2.18-1.12,4.48-1.07,6.79
					v15.17c-0.05,2.34,0.31,4.67,1.04,6.89c0.62,1.86,1.85,3.45,3.49,4.52c1.97,1.14,4.23,1.69,6.51,1.58
					c2.27,0.12,4.52-0.43,6.46-1.6c1.61-1.09,2.82-2.68,3.45-4.52c0.76-2.2,1.12-4.51,1.08-6.83V43.75
					C172.48,41.45,172.11,39.16,171.34,36.99 M166.75,60.16c0.02,1.31-0.12,2.61-0.4,3.88c-0.21,1.01-0.75,1.91-1.54,2.57
					c-0.99,0.68-2.18,1-3.38,0.91c-1.2,0.08-2.4-0.24-3.4-0.91c-0.8-0.65-1.36-1.56-1.57-2.57c-0.28-1.27-0.42-2.58-0.4-3.88V42.62
					c-0.02-1.29,0.12-2.58,0.4-3.83c0.21-0.98,0.77-1.86,1.57-2.47c1.01-0.64,2.2-0.94,3.4-0.87c1.19-0.08,2.38,0.22,3.38,0.87
					c0.79,0.62,1.33,1.49,1.54,2.47c0.28,1.26,0.42,2.54,0.4,3.83V60.16z M168.11,10.99l-3.05-4.32c1.55-0.22,2.66-1.61,2.52-3.17
					c0-2.13-1.3-3.28-3.68-3.28h-6.44v10.79h1.92V6.79h3.49l2.95,4.22L168.11,10.99z M163.63,5.13h-4.25V1.86h4.25
					c1.35,0,2,0.54,2,1.64S164.98,5.13,163.63,5.13 M154.01,5.6c0.18-2.81-1.95-5.23-4.76-5.41c-0.27-0.02-0.54-0.01-0.81,0.01
					h-4.92v10.79h4.92c2.8,0.27,5.29-1.79,5.56-4.59C154.03,6.14,154.03,5.87,154.01,5.6 M152.06,5.6c0.16,1.91-1.26,3.59-3.18,3.75
					c-0.22,0.02-0.43,0.02-0.65-0.01h-2.8V1.86h2.8c1.91-0.2,3.62,1.19,3.82,3.1C152.08,5.17,152.08,5.39,152.06,5.6 M138.33,11
					h2.09l-4.95-10.79h-1.95L128.57,11h2.02l1.16-2.59h5.43L138.33,11z M136.46,6.8h-4l2-4.6L136.46,6.8z M117.68,5.6
					c-0.08-2.07,1.54-3.81,3.61-3.89c0.18-0.01,0.36,0,0.53,0.02c1.16,0,2.3,0.34,3.27,0.99l0.62-1.57
					c-1.18-0.77-2.56-1.16-3.97-1.12c-2.99-0.32-5.68,1.84-6,4.83c-0.03,0.26-0.04,0.52-0.03,0.79c0,3.41,2.33,5.55,6.13,5.55
					c1.51,0.05,2.99-0.36,4.25-1.19l-0.7-1.59c-1.01,0.7-2.21,1.07-3.44,1.06c-2.08,0.26-3.98-1.22-4.24-3.3
					C117.68,5.99,117.67,5.8,117.68,5.6 M112.65,65.85c0.75-2.19,1.12-4.5,1.07-6.81V43.8c0.05-2.3-0.31-4.6-1.07-6.77
					c-0.64-1.79-1.85-3.32-3.45-4.35c-1.96-1.12-4.21-1.65-6.47-1.53c-2.26-0.11-4.51,0.41-6.48,1.51
					c-1.62,1.02-2.84,2.55-3.48,4.35c-0.76,2.18-1.13,4.48-1.07,6.79v15.17c-0.05,2.34,0.31,4.67,1.05,6.89
					c0.61,1.86,1.84,3.45,3.48,4.53c1.97,1.14,4.23,1.69,6.51,1.58c2.27,0.12,4.52-0.44,6.47-1.6
					C110.81,69.28,112.02,67.69,112.65,65.85 M108.06,60.21c0.02,1.31-0.12,2.61-0.4,3.88c-0.21,1.01-0.75,1.91-1.54,2.57
					c-0.99,0.68-2.18,1-3.38,0.91c-1.2,0.08-2.4-0.24-3.4-0.91c-0.8-0.65-1.36-1.56-1.57-2.57c-0.28-1.28-0.42-2.58-0.4-3.88V42.67
					c-0.02-1.29,0.11-2.57,0.4-3.83c0.21-0.99,0.77-1.86,1.57-2.48c1.01-0.64,2.2-0.95,3.4-0.87c1.19-0.08,2.38,0.22,3.38,0.87
					c0.79,0.62,1.34,1.5,1.54,2.48c0.29,1.26,0.42,2.54,0.4,3.83V60.21z M97.49,11h9.57V9.35h-7.65V6.38h6.62V4.74h-6.62V1.86h7.65
					V0.22h-9.57V11z M85.05,11h9.25V9.35h-7.34V0.22h-1.92L85.05,11z M67.96,3.26c0-0.99,1.05-1.56,2.78-1.56
					c1.34-0.03,2.66,0.35,3.76,1.11l0.76-1.49c-1.33-0.89-2.9-1.35-4.51-1.3C67.76,0.02,66,1.26,66,3.33c0,2.05,1.27,2.89,4.73,3.16
					c2.4,0.18,3.17,0.52,3.17,1.41c0,1.06-1.06,1.6-3.06,1.6c-1.61,0.01-3.18-0.48-4.49-1.4l-0.83,1.52
					c1.57,1.06,3.44,1.61,5.33,1.55c3.24,0,5-1.17,5-3.36c0-2.05-1.27-2.89-4.75-3.16C68.71,4.49,67.96,4.14,67.96,3.26
					 M62.68,31.49v26.8c0.01,1.57-0.11,3.14-0.35,4.69c-0.15,1.24-0.67,2.41-1.49,3.36c-0.95,0.89-2.23,1.34-3.53,1.24
					c-1.29,0.1-2.56-0.35-3.5-1.24c-0.83-0.94-1.36-2.12-1.51-3.36c-0.24-1.55-0.36-3.12-0.35-4.69v-26.8h-5.37v26.54
					c-0.04,2.47,0.25,4.94,0.85,7.34c0.46,1.94,1.59,3.66,3.18,4.87c2,1.27,4.35,1.88,6.71,1.73c2.36,0.16,4.7-0.45,6.69-1.73
					c1.58-1.21,2.69-2.93,3.16-4.87c0.6-2.4,0.88-4.87,0.84-7.34V31.49H62.68z M60.51,11h1.8V0.2h-1.84v7.82L54.45,0.2h-2.4v10.79
					h1.84V2.37L60.51,11z M46.84,11h2.1L43.99,0.2h-1.95l-4.95,10.79h2.02l1.16-2.59h5.43L46.84,11z M44.97,6.8h-4l2-4.6L44.97,6.8z
					 M35.19,5.6c0.18-2.81-1.95-5.23-4.76-5.41c-0.27-0.02-0.54-0.01-0.81,0.01H24.7v10.79h4.92c2.8,0.27,5.29-1.79,5.56-4.59
					C35.21,6.14,35.21,5.87,35.19,5.6 M33.24,5.6c0.16,1.91-1.26,3.59-3.18,3.75c-0.22,0.02-0.43,0.02-0.65-0.01h-2.8V1.85h2.8
					c1.91-0.2,3.62,1.19,3.82,3.1C33.26,5.17,33.26,5.38,33.24,5.6 M25.86,62.65h-4.59v2.88h3.4c-0.17,0.39-0.35,0.79-0.52,1.14
					c-0.76,1.73-1.73,3.37-2.89,4.87h5.27v-0.01c0.54-2.82,3.01-4.86,5.88-4.86c2.87,0,5.34,2.04,5.88,4.86v0.01h5.27
					c-1.15-1.5-2.12-3.14-2.88-4.87c-0.17-0.35-0.34-0.75-0.52-1.14h3.4v-2.87h-4.59c-2.37-6.28-4.35-16.26-5.1-31.17h-2.93
					C30.21,46.39,28.23,56.38,25.86,62.65 M30.36,62.66c0,0,1.21-5.83,1.8-9.84h0.56c0.59,4.01,1.78,9.84,1.78,9.84H30.36z
					 M12.99,36.69c0.31-0.63,0.46-1.33,0.44-2.03c0.02-0.63-0.13-1.25-0.44-1.8c-0.28-0.49-0.69-0.9-1.18-1.18
					c-0.51-0.28-1.09-0.43-1.67-0.42c-0.8-0.03-1.59,0.18-2.27,0.59c-0.62,0.39-1.17,0.88-1.64,1.43l-0.95,1.08
					c-0.29,0.33-0.61,0.63-0.96,0.9c-0.35,0.24-0.76,0.36-1.18,0.34c-0.24,0-0.47-0.07-0.68-0.18c-0.22-0.11-0.35-0.34-0.34-0.58
					c-0.02-0.21,0.07-0.41,0.23-0.54c0.2-0.13,0.43-0.21,0.66-0.23c0.33-0.04,0.67-0.07,1-0.07l-0.31-2.47
					c-0.41,0.01-0.82,0.06-1.22,0.14c-0.42,0.08-0.83,0.23-1.2,0.45c-0.39,0.23-0.71,0.56-0.93,0.96c-0.26,0.52-0.38,1.09-0.35,1.67
					c-0.05,0.97,0.26,1.92,0.88,2.66c0.66,0.68,1.59,1.04,2.54,0.98c0.69,0.02,1.38-0.15,1.97-0.5c0.53-0.34,1.02-0.76,1.43-1.24
					l0.98-1.12c0.33-0.39,0.7-0.74,1.12-1.04c0.4-0.26,0.88-0.4,1.36-0.38c0.22,0,0.44,0.04,0.64,0.13
					c0.22,0.11,0.34,0.34,0.31,0.59c0,0.22-0.08,0.44-0.23,0.6c-0.21,0.19-0.46,0.33-0.74,0.38c-0.44,0.1-0.9,0.15-1.35,0.15
					l0.37,2.45c0.81,0,1.61-0.16,2.36-0.47C12.22,37.68,12.7,37.25,12.99,36.69 M13.24,40.53H0.2v2.87h13.05V40.53z M0.2,53.44
					h13.05v-2.87H7.4v-0.82l5.85-1.43v-2.97l-6.32,1.78c-0.17-0.39-0.43-0.72-0.76-0.99c-0.32-0.24-0.7-0.4-1.09-0.47
					c-0.47-0.09-0.95-0.13-1.43-0.13c-0.75-0.04-1.49,0.14-2.12,0.54c-0.51,0.37-0.87,0.9-1.04,1.5c-0.21,0.74-0.3,1.5-0.29,2.27
					L0.2,53.44z M2.13,49.64c-0.05-0.43,0.13-0.85,0.47-1.12c0.4-0.23,0.85-0.33,1.31-0.31c0.34-0.01,0.67,0.04,0.99,0.14
					c0.26,0.08,0.48,0.25,0.63,0.47c0.16,0.29,0.24,0.62,0.22,0.95v0.8h-3.6L2.13,49.64z M10.49,60.09v-1.91l2.76-0.43V55.1
					L0.2,57.52v3.27l13.05,2.45v-2.71L10.49,60.09z M8.77,59.84l-5.09-0.69l5.09-0.69V59.84z M0.64,65.21
					c-0.32,0.59-0.47,1.25-0.44,1.92v4.36h13.05v-2.86H7.7v-1.16c0.01-0.65-0.09-1.29-0.3-1.91C7.2,65,6.81,64.52,6.3,64.21
					c-0.71-0.37-1.51-0.54-2.31-0.5c-0.7-0.02-1.4,0.11-2.05,0.37C1.39,64.32,0.94,64.71,0.64,65.21 M2.23,67.68
					c-0.02-0.3,0.06-0.6,0.23-0.85c0.15-0.18,0.37-0.3,0.6-0.34c0.29-0.05,0.59-0.08,0.88-0.07c0.33-0.01,0.66,0.02,0.98,0.09
					c0.23,0.04,0.44,0.17,0.58,0.36c0.15,0.24,0.22,0.52,0.2,0.8v0.97H2.22L2.23,67.68z M89.57,31.49H70.53v4.15h6.8v35.9h5.62
					V35.65h6.61L89.57,31.49z M119.99,31.44l-0.75,40.05h4.57l0.45-29.08l6.76,29.08h3.19l6.8-29.08l0.45,29.08h4.52l-0.75-40.05
					h-5.47l-7.16,32.48l-7.11-32.48L119.99,31.44z M193.58,31.44h-19.04v4.15h6.8v35.9h5.62V35.6h6.6L193.58,31.44z"/>
			</g>
		</g>
	</g>
</g>
</svg>
